<svg xmlns="http://www.w3.org/2000/svg" width="3840" height="2800" viewBox="0 0 3840 2800">
	<defs>
		<pattern id="grid" width="64" height="64" patternUnits="userSpaceOnUse"><path d="M64 0H0V64" fill="none" stroke="#DDE2EE" stroke-width="1" opacity="0.34"/></pattern>
	</defs>
	<rect width="3840" height="2800" fill="#F7F8FB"/><rect width="3840" height="2800" fill="url(#grid)"/><text class="source-text" data-source-text="봇 행동 원리" data-parent="title" x="120" y="112" font-size="76" font-weight="700" fill="#1F2430" text-anchor="start"><tspan x="120" dy="0">봇 행동 원리</tspan></text><text class="source-text" data-source-text="모든 봇의 기본 원리와 캐릭터별 추가 행동 · 2026-10-09 코드 기준 · 공격 범위 1.5배" data-parent="subtitle" x="120" y="178" font-size="34" font-weight="400" fill="#535B6E" text-anchor="start"><tspan x="120" dy="0">모든 봇의 기본 원리와 캐릭터별 추가 행동 · 2026-10-09 코드 기준 · 공격 범위 1.5배</tspan></text><path d="M120 214 H3720" stroke="#D9DEEA" stroke-width="3"/><g id="connectors"><path d="M560,1390 L600,1390 L600,350" fill="none" stroke="#AAB2C3" stroke-width="10" stroke-linecap="round" stroke-linejoin="round" opacity="0.82"/><path d="M600,350 L600,2350" fill="none" stroke="#AAB2C3" stroke-width="10" stroke-linecap="round" stroke-linejoin="round" opacity="0.82"/></g><rect id="box-root" data-box="root" x="40" y="1305" width="520" height="170" rx="34" fill="#1F2430" stroke="#1F2430" stroke-width="0"/><rect x="58" y="1323" width="10" height="134" rx="5" fill="#FFB53D"/><text class="source-text" data-source-text="기본 봇
(모든 캐릭터 공통)" data-parent="root" x="310" y="1371" font-size="46" font-weight="700" fill="#FFFFFF" text-anchor="middle"><tspan x="310" dy="0">기본 봇</tspan><tspan x="310" dy="56">(모든 캐릭터 공통)</tspan></text><path d="M600,465 L650,465" fill="none" stroke="#4E6AD8" stroke-width="8" stroke-linecap="round" stroke-linejoin="round" opacity="0.82"/><rect id="box-b-g-think" data-box="b-g-think" x="650" y="418" width="220" height="94" rx="22" fill="#1F2430" stroke="#4E6AD8" stroke-width="5"/><rect x="650" y="418" width="14" height="94" rx="7" fill="#4E6AD8"/><text class="source-text" data-source-text="판단" data-parent="b-g-think" x="765" y="479" font-size="44" font-weight="700" fill="#FFFFFF" text-anchor="middle"><tspan x="765" dy="0">판단</tspan></text><path d="M870,465 L905,465 L905,308 L940,308" fill="none" stroke="#4E6AD8" stroke-width="5" stroke-linecap="round" stroke-linejoin="round" opacity="0.82"/><rect id="box-b-think-0" data-box="b-think-0" x="940" y="280" width="924" height="370" rx="20" fill="#FFFFFF" stroke="#8c9ee6" stroke-width="3"/><rect x="940" y="280" width="924" height="64" rx="18" fill="#e6eafa"/><rect x="940" y="326" width="924" height="18" fill="#e6eafa"/><circle cx="970" cy="312" r="8" fill="#4E6AD8"/><text class="source-text" data-source-text="판단 순서" data-parent="b-think-0" x="992" y="324" font-size="34" font-weight="700" fill="#1F2430" text-anchor="start"><tspan x="992" dy="0">판단 순서</tspan></text><circle cx="970" cy="366" r="5" fill="#4E6AD8"/><text class="source-text" data-source-text="맞는 중(경직)엔 입력 없음" data-parent="b-think-0" x="992" y="374" font-size="28" font-weight="400" fill="#1F2430" text-anchor="start"><tspan x="992" dy="0">맞는 중(경직)엔 입력 없음</tspan></text><circle cx="970" cy="417" r="5" fill="#4E6AD8"/><text class="source-text" data-source-text="떨어지면 복귀가 최우선" data-parent="b-think-0" x="992" y="425" font-size="28" font-weight="400" fill="#1F2430" text-anchor="start"><tspan x="992" dy="0">떨어지면 복귀가 최우선</tspan></text><circle cx="970" cy="468" r="5" fill="#4E6AD8"/><text class="source-text" data-source-text="0.35~0.7초마다 할 일 다시 고르기" data-parent="b-think-0" x="992" y="476" font-size="28" font-weight="400" fill="#1F2430" text-anchor="start"><tspan x="992" dy="0">0.35~0.7초마다 할 일 다시 고르기</tspan></text><circle cx="970" cy="519" r="5" fill="#4E6AD8"/><text class="source-text" data-source-text="상태 5가지: 돌아다니기 · 쫓기 · 교전 · 포털 · 복귀" data-parent="b-think-0" x="992" y="527" font-size="28" font-weight="400" fill="#1F2430" text-anchor="start"><tspan x="992" dy="0">상태 5가지: 돌아다니기 · 쫓기 · 교전 · 포털 · 복귀</tspan></text><path d="M870,465 L905,465 L905,308 L1888,308" fill="none" stroke="#4E6AD8" stroke-width="5" stroke-linecap="round" stroke-linejoin="round" opacity="0.82"/><rect id="box-b-think-1" data-box="b-think-1" x="1888" y="280" width="924" height="370" rx="20" fill="#FFFFFF" stroke="#8c9ee6" stroke-width="3"/><rect x="1888" y="280" width="924" height="64" rx="18" fill="#e6eafa"/><rect x="1888" y="326" width="924" height="18" fill="#e6eafa"/><circle cx="1918" cy="312" r="8" fill="#4E6AD8"/><text class="source-text" data-source-text="표적 고르기" data-parent="b-think-1" x="1940" y="324" font-size="34" font-weight="700" fill="#1F2430" text-anchor="start"><tspan x="1940" dy="0">표적 고르기</tspan></text><circle cx="1918" cy="366" r="5" fill="#4E6AD8"/><text class="source-text" data-source-text="같은 렐름의 선수 · 몬스터 · 크리스털 중 가까운 것" data-parent="b-think-1" x="1940" y="374" font-size="28" font-weight="400" fill="#1F2430" text-anchor="start"><tspan x="1940" dy="0">같은 렐름의 선수 · 몬스터 · 크리스털 중 가까운 것</tspan></text><circle cx="1918" cy="417" r="5" fill="#4E6AD8"/><text class="source-text" data-source-text="경기 초반엔 몬스터 · 크리스털을 더 선호 (나를 때린 선수는 예외)" data-parent="b-think-1" x="1940" y="425" font-size="28" font-weight="400" fill="#1F2430" text-anchor="start"><tspan x="1940" dy="0">경기 초반엔 몬스터 · 크리스털을 더 선호 (나를 때린 선수는 예외)</tspan></text><circle cx="1918" cy="468" r="5" fill="#4E6AD8"/><text class="source-text" data-source-text="중앙전이거나 4명 이하면 선수 먼저" data-parent="b-think-1" x="1940" y="476" font-size="28" font-weight="400" fill="#1F2430" text-anchor="start"><tspan x="1940" dy="0">중앙전이거나 4명 이하면 선수 먼저</tspan></text><circle cx="1918" cy="519" r="5" fill="#4E6AD8"/><text class="source-text" data-source-text="다른 층 표적은 갈 길이 있을 때만" data-parent="b-think-1" x="1940" y="527" font-size="28" font-weight="400" fill="#1F2430" text-anchor="start"><tspan x="1940" dy="0">다른 층 표적은 갈 길이 있을 때만</tspan></text><path d="M870,465 L905,465 L905,308 L2836,308" fill="none" stroke="#4E6AD8" stroke-width="5" stroke-linecap="round" stroke-linejoin="round" opacity="0.82"/><rect id="box-b-think-2" data-box="b-think-2" x="2836" y="280" width="924" height="370" rx="20" fill="#FFFFFF" stroke="#8c9ee6" stroke-width="3"/><rect x="2836" y="280" width="924" height="64" rx="18" fill="#e6eafa"/><rect x="2836" y="326" width="924" height="18" fill="#e6eafa"/><circle cx="2866" cy="312" r="8" fill="#4E6AD8"/><text class="source-text" data-source-text="표적 포기" data-parent="b-think-2" x="2888" y="324" font-size="34" font-weight="700" fill="#1F2430" text-anchor="start"><tspan x="2888" dy="0">표적 포기</tspan></text><circle cx="2866" cy="366" r="5" fill="#4E6AD8"/><text class="source-text" data-source-text="2.5초 동안 진전 없으면 버리고 5초 무시" data-parent="b-think-2" x="2888" y="374" font-size="28" font-weight="400" fill="#1F2430" text-anchor="start"><tspan x="2888" dy="0">2.5초 동안 진전 없으면 버리고 5초 무시</tspan></text><circle cx="2866" cy="417" r="5" fill="#4E6AD8"/><text class="source-text" data-source-text="진전 = 90px 가까워짐 · 최근에 서로 때림" data-parent="b-think-2" x="2888" y="425" font-size="28" font-weight="400" fill="#1F2430" text-anchor="start"><tspan x="2888" dy="0">진전 = 90px 가까워짐 · 최근에 서로 때림</tspan></text><circle cx="2866" cy="468" r="5" fill="#4E6AD8"/><text class="source-text" data-source-text="진전 = 같은 층이고 길이 열림" data-parent="b-think-2" x="2888" y="476" font-size="28" font-weight="400" fill="#1F2430" text-anchor="start"><tspan x="2888" dy="0">진전 = 같은 층이고 길이 열림</tspan></text><circle cx="2866" cy="519" r="5" fill="#4E6AD8"/><text class="source-text" data-source-text="층은 서 있는 발판으로 판단 (점프 중이어도 같은 층)" data-parent="b-think-2" x="2888" y="527" font-size="28" font-weight="400" fill="#1F2430" text-anchor="start"><tspan x="2888" dy="0">층은 서 있는 발판으로 판단 (점프 중이어도 같은 층)</tspan></text><path d="M600,885 L650,885" fill="none" stroke="#2E9D63" stroke-width="8" stroke-linecap="round" stroke-linejoin="round" opacity="0.82"/><rect id="box-b-g-move" data-box="b-g-move" x="650" y="838" width="220" height="94" rx="22" fill="#1F2430" stroke="#2E9D63" stroke-width="5"/><rect x="650" y="838" width="14" height="94" rx="7" fill="#2E9D63"/><text class="source-text" data-source-text="이동" data-parent="b-g-move" x="765" y="899" font-size="44" font-weight="700" fill="#FFFFFF" text-anchor="middle"><tspan x="765" dy="0">이동</tspan></text><path d="M870,885 L905,885 L905,728 L940,728" fill="none" stroke="#2E9D63" stroke-width="5" stroke-linecap="round" stroke-linejoin="round" opacity="0.82"/><rect id="box-b-move-0" data-box="b-move-0" x="940" y="700" width="924" height="370" rx="20" fill="#FFFFFF" stroke="#77bf9a" stroke-width="3"/><rect x="940" y="700" width="924" height="64" rx="18" fill="#e2f1e9"/><rect x="940" y="746" width="924" height="18" fill="#e2f1e9"/><circle cx="970" cy="732" r="8" fill="#2E9D63"/><text class="source-text" data-source-text="길찾기" data-parent="b-move-0" x="992" y="744" font-size="34" font-weight="700" fill="#1F2430" text-anchor="start"><tspan x="992" dy="0">길찾기</tspan></text><circle cx="970" cy="786" r="5" fill="#2E9D63"/><text class="source-text" data-source-text="같은 높이면 곧장, 다른 층이면 발판 지도로 길찾기" data-parent="b-move-0" x="992" y="794" font-size="28" font-weight="400" fill="#1F2430" text-anchor="start"><tspan x="992" dy="0">같은 높이면 곧장, 다른 층이면 발판 지도로 길찾기</tspan></text><circle cx="970" cy="837" r="5" fill="#2E9D63"/><text class="source-text" data-source-text="건널 수 있는 틈만: 점프 172px · 낙하 300px" data-parent="b-move-0" x="992" y="845" font-size="28" font-weight="400" fill="#1F2430" text-anchor="start"><tspan x="992" dy="0">건널 수 있는 틈만: 점프 172px · 낙하 300px</tspan></text><circle cx="970" cy="888" r="5" fill="#2E9D63"/><text class="source-text" data-source-text="오르기는 한 번 점프 높이까지 (마지막 공중 점프는 복귀용)" data-parent="b-move-0" x="992" y="896" font-size="28" font-weight="400" fill="#1F2430" text-anchor="start"><tspan x="992" dy="0">오르기는 한 번 점프 높이까지 (마지막 공중 점프는 복귀용)</tspan></text><circle cx="970" cy="939" r="5" fill="#2E9D63"/><text class="source-text" data-source-text="착지할 곳 없으면 멈춤 · 0.45초 막히면 점프" data-parent="b-move-0" x="992" y="947" font-size="28" font-weight="400" fill="#1F2430" text-anchor="start"><tspan x="992" dy="0">착지할 곳 없으면 멈춤 · 0.45초 막히면 점프</tspan></text><path d="M870,885 L905,885 L905,728 L1888,728" fill="none" stroke="#2E9D63" stroke-width="5" stroke-linecap="round" stroke-linejoin="round" opacity="0.82"/><rect id="box-b-move-1" data-box="b-move-1" x="1888" y="700" width="924" height="370" rx="20" fill="#FFFFFF" stroke="#77bf9a" stroke-width="3"/><rect x="1888" y="700" width="924" height="64" rx="18" fill="#e2f1e9"/><rect x="1888" y="746" width="924" height="18" fill="#e2f1e9"/><circle cx="1918" cy="732" r="8" fill="#2E9D63"/><text class="source-text" data-source-text="포털 · 후퇴" data-parent="b-move-1" x="1940" y="744" font-size="34" font-weight="700" fill="#1F2430" text-anchor="start"><tspan x="1940" dy="0">포털 · 후퇴</tspan></text><circle cx="1918" cy="786" r="5" fill="#2E9D63"/><text class="source-text" data-source-text="렐름 붕괴 경고: 포털로 탈출" data-parent="b-move-1" x="1940" y="794" font-size="28" font-weight="400" fill="#1F2430" text-anchor="start"><tspan x="1940" dy="0">렐름 붕괴 경고: 포털로 탈출</tspan></text><circle cx="1918" cy="837" r="5" fill="#2E9D63"/><text class="source-text" data-source-text="체력 30% 미만(중앙전 전): 빈 렐름으로, 없으면 4초 물러서기" data-parent="b-move-1" x="1940" y="845" font-size="28" font-weight="400" fill="#1F2430" text-anchor="start"><tspan x="1940" dy="0">체력 30% 미만(중앙전 전): 빈 렐름으로, 없으면 4초 물러서기</tspan></text><circle cx="1918" cy="888" r="5" fill="#2E9D63"/><text class="source-text" data-source-text="표적 없이 4초: 가끔 다른 렐름으로" data-parent="b-move-1" x="1940" y="896" font-size="28" font-weight="400" fill="#1F2430" text-anchor="start"><tspan x="1940" dy="0">표적 없이 4초: 가끔 다른 렐름으로</tspan></text><circle cx="1918" cy="939" r="5" fill="#2E9D63"/><text class="source-text" data-source-text="포털 이동 뒤 8초는 머묾" data-parent="b-move-1" x="1940" y="947" font-size="28" font-weight="400" fill="#1F2430" text-anchor="start"><tspan x="1940" dy="0">포털 이동 뒤 8초는 머묾</tspan></text><path d="M870,885 L905,885 L905,728 L2836,728" fill="none" stroke="#2E9D63" stroke-width="5" stroke-linecap="round" stroke-linejoin="round" opacity="0.82"/><rect id="box-b-move-2" data-box="b-move-2" x="2836" y="700" width="924" height="370" rx="20" fill="#FFFFFF" stroke="#77bf9a" stroke-width="3"/><rect x="2836" y="700" width="924" height="64" rx="18" fill="#e2f1e9"/><rect x="2836" y="746" width="924" height="18" fill="#e2f1e9"/><circle cx="2866" cy="732" r="8" fill="#2E9D63"/><text class="source-text" data-source-text="지형 위험" data-parent="b-move-2" x="2888" y="744" font-size="34" font-weight="700" fill="#1F2430" text-anchor="start"><tspan x="2888" dy="0">지형 위험</tspan></text><circle cx="2866" cy="786" r="5" fill="#2E9D63"/><text class="source-text" data-source-text="경고를 보면 80%만 반응" data-parent="b-move-2" x="2888" y="794" font-size="28" font-weight="400" fill="#1F2430" text-anchor="start"><tspan x="2888" dy="0">경고를 보면 80%만 반응</tspan></text><circle cx="2866" cy="837" r="5" fill="#2E9D63"/><text class="source-text" data-source-text="지진 직전 점프 · 분출 · 광선 기둥 피하기" data-parent="b-move-2" x="2888" y="845" font-size="28" font-weight="400" fill="#1F2430" text-anchor="start"><tspan x="2888" dy="0">지진 직전 점프 · 분출 · 광선 기둥 피하기</tspan></text><path d="M600,1330 L650,1330" fill="none" stroke="#D9483B" stroke-width="8" stroke-linecap="round" stroke-linejoin="round" opacity="0.82"/><rect id="box-b-g-fight" data-box="b-g-fight" x="650" y="1283" width="220" height="94" rx="22" fill="#1F2430" stroke="#D9483B" stroke-width="5"/><rect x="650" y="1283" width="14" height="94" rx="7" fill="#D9483B"/><text class="source-text" data-source-text="전투" data-parent="b-g-fight" x="765" y="1344" font-size="44" font-weight="700" fill="#FFFFFF" text-anchor="middle"><tspan x="765" dy="0">전투</tspan></text><path d="M870,1330 L905,1330 L905,1148 L940,1148" fill="none" stroke="#D9483B" stroke-width="5" stroke-linecap="round" stroke-linejoin="round" opacity="0.82"/><rect id="box-b-fight-0" data-box="b-fight-0" x="940" y="1120" width="687" height="420" rx="20" fill="#FFFFFF" stroke="#e68880" stroke-width="3"/><rect x="940" y="1120" width="687" height="64" rx="18" fill="#fae5e4"/><rect x="940" y="1166" width="687" height="18" fill="#fae5e4"/><circle cx="970" cy="1152" r="8" fill="#D9483B"/><text class="source-text" data-source-text="교전 거리" data-parent="b-fight-0" x="992" y="1164" font-size="34" font-weight="700" fill="#1F2430" text-anchor="start"><tspan x="992" dy="0">교전 거리</tspan></text><circle cx="970" cy="1206" r="5" fill="#D9483B"/><text class="source-text" data-source-text="캐릭터마다 최소 · 최대 · 공격 거리" data-parent="b-fight-0" x="992" y="1214" font-size="28" font-weight="400" fill="#1F2430" text-anchor="start"><tspan x="992" dy="0">캐릭터마다 최소 · 최대 · 공격 거리</tspan></text><circle cx="970" cy="1257" r="5" fill="#D9483B"/><text class="source-text" data-source-text="최대보다 멀면 다가가기 · 뛰어들기" data-parent="b-fight-0" x="992" y="1265" font-size="28" font-weight="400" fill="#1F2430" text-anchor="start"><tspan x="992" dy="0">최대보다 멀면 다가가기 · 뛰어들기</tspan></text><circle cx="970" cy="1308" r="5" fill="#D9483B"/><text class="source-text" data-source-text="그 사이면 멈춤 · 가로지르기 · 다가가기 · 뛰어들기 섞기" data-parent="b-fight-0" x="992" y="1316" font-size="28" font-weight="400" fill="#1F2430" text-anchor="start"><tspan x="992" dy="0">그 사이면 멈춤 · 가로지르기 · 다가가기 ·</tspan><tspan x="992" dy="37">뛰어들기 섞기</tspan></text><circle cx="970" cy="1396" r="5" fill="#D9483B"/><text class="source-text" data-source-text="0.4~0.9초마다 바꾸고 같은 행동은 연달아 안 함" data-parent="b-fight-0" x="992" y="1404" font-size="28" font-weight="400" fill="#1F2430" text-anchor="start"><tspan x="992" dy="0">0.4~0.9초마다 바꾸고 같은 행동은 연달아 안 함</tspan></text><path d="M870,1330 L905,1330 L905,1148 L1651,1148" fill="none" stroke="#D9483B" stroke-width="5" stroke-linecap="round" stroke-linejoin="round" opacity="0.82"/><rect id="box-b-fight-1" data-box="b-fight-1" x="1651" y="1120" width="687" height="420" rx="20" fill="#FFFFFF" stroke="#e68880" stroke-width="3"/><rect x="1651" y="1120" width="687" height="64" rx="18" fill="#fae5e4"/><rect x="1651" y="1166" width="687" height="18" fill="#fae5e4"/><circle cx="1681" cy="1152" r="8" fill="#D9483B"/><text class="source-text" data-source-text="공격" data-parent="b-fight-1" x="1703" y="1164" font-size="34" font-weight="700" fill="#1F2430" text-anchor="start"><tspan x="1703" dy="0">공격</tspan></text><circle cx="1681" cy="1206" r="5" fill="#D9483B"/><text class="source-text" data-source-text="공격 거리 안에서만 · 0.5~1초 간격" data-parent="b-fight-1" x="1703" y="1214" font-size="28" font-weight="400" fill="#1F2430" text-anchor="start"><tspan x="1703" dy="0">공격 거리 안에서만 · 0.5~1초 간격</tspan></text><circle cx="1681" cy="1257" r="5" fill="#D9483B"/><text class="source-text" data-source-text="가까우면 기본 82%, 그 밖엔 기본 62% · K 26% · L 12%" data-parent="b-fight-1" x="1703" y="1265" font-size="28" font-weight="400" fill="#1F2430" text-anchor="start"><tspan x="1703" dy="0">가까우면 기본 82%, 그 밖엔 기본 62% · K 26%</tspan><tspan x="1703" dy="37">· L 12%</tspan></text><circle cx="1681" cy="1345" r="5" fill="#D9483B"/><text class="source-text" data-source-text="가파르게 위 · 아래인 표적엔 위 · 아래 공격" data-parent="b-fight-1" x="1703" y="1353" font-size="28" font-weight="400" fill="#1F2430" text-anchor="start"><tspan x="1703" dy="0">가파르게 위 · 아래인 표적엔 위 · 아래 공격</tspan></text><circle cx="1681" cy="1396" r="5" fill="#D9483B"/><text class="source-text" data-source-text="발밑이 낭떠러지면 공중 아래 공격 안 함" data-parent="b-fight-1" x="1703" y="1404" font-size="28" font-weight="400" fill="#1F2430" text-anchor="start"><tspan x="1703" dy="0">발밑이 낭떠러지면 공중 아래 공격 안 함</tspan></text><path d="M870,1330 L905,1330 L905,1148 L2362,1148" fill="none" stroke="#D9483B" stroke-width="5" stroke-linecap="round" stroke-linejoin="round" opacity="0.82"/><rect id="box-b-fight-2" data-box="b-fight-2" x="2362" y="1120" width="687" height="420" rx="20" fill="#FFFFFF" stroke="#e68880" stroke-width="3"/><rect x="2362" y="1120" width="687" height="64" rx="18" fill="#fae5e4"/><rect x="2362" y="1166" width="687" height="18" fill="#fae5e4"/><circle cx="2392" cy="1152" r="8" fill="#D9483B"/><text class="source-text" data-source-text="궁극기" data-parent="b-fight-2" x="2414" y="1164" font-size="34" font-weight="700" fill="#1F2430" text-anchor="start"><tspan x="2414" dy="0">궁극기</tspan></text><circle cx="2392" cy="1206" r="5" fill="#D9483B"/><text class="source-text" data-source-text="선수가 표적일 때 기회 점수 3점 이상이면 70% 확률로 사용" data-parent="b-fight-2" x="2414" y="1214" font-size="28" font-weight="400" fill="#1F2430" text-anchor="start"><tspan x="2414" dy="0">선수가 표적일 때 기회 점수 3점 이상이면 70%</tspan><tspan x="2414" dy="37">확률로 사용</tspan></text><circle cx="2392" cy="1294" r="5" fill="#D9483B"/><text class="source-text" data-source-text="+2 사거리 안 · +1 표적 체력 35% 이하" data-parent="b-fight-2" x="2414" y="1302" font-size="28" font-weight="400" fill="#1F2430" text-anchor="start"><tspan x="2414" dy="0">+2 사거리 안 · +1 표적 체력 35% 이하</tspan></text><circle cx="2392" cy="1345" r="5" fill="#D9483B"/><text class="source-text" data-source-text="+1 표적 경직 · 공격 중 · +1 근처에 다른 상대" data-parent="b-fight-2" x="2414" y="1353" font-size="28" font-weight="400" fill="#1F2430" text-anchor="start"><tspan x="2414" dy="0">+1 표적 경직 · 공격 중 · +1 근처에 다른 상대</tspan></text><circle cx="2392" cy="1396" r="5" fill="#D9483B"/><text class="source-text" data-source-text="준비된 지 12초가 지나면 2점에도 사용" data-parent="b-fight-2" x="2414" y="1404" font-size="28" font-weight="400" fill="#1F2430" text-anchor="start"><tspan x="2414" dy="0">준비된 지 12초가 지나면 2점에도 사용</tspan></text><path d="M870,1330 L905,1330 L905,1148 L3073,1148" fill="none" stroke="#D9483B" stroke-width="5" stroke-linecap="round" stroke-linejoin="round" opacity="0.82"/><rect id="box-b-fight-3" data-box="b-fight-3" x="3073" y="1120" width="687" height="420" rx="20" fill="#FFFFFF" stroke="#e68880" stroke-width="3"/><rect x="3073" y="1120" width="687" height="64" rx="18" fill="#fae5e4"/><rect x="3073" y="1166" width="687" height="18" fill="#fae5e4"/><circle cx="3103" cy="1152" r="8" fill="#D9483B"/><text class="source-text" data-source-text="가드" data-parent="b-fight-3" x="3125" y="1164" font-size="34" font-weight="700" fill="#1F2430" text-anchor="start"><tspan x="3125" dy="0">가드</tspan></text><circle cx="3103" cy="1206" r="5" fill="#D9483B"/><text class="source-text" data-source-text="상대가 휘두르기 시작하면 감지 (사거리 안, 나를 볼 때)" data-parent="b-fight-3" x="3125" y="1214" font-size="28" font-weight="400" fill="#1F2430" text-anchor="start"><tspan x="3125" dy="0">상대가 휘두르기 시작하면 감지 (사거리 안, 나를</tspan><tspan x="3125" dy="37">볼 때)</tspan></text><circle cx="3103" cy="1294" r="5" fill="#D9483B"/><text class="source-text" data-source-text="55% 확률로 0.14~0.24초 뒤 공격자 쪽으로 막기" data-parent="b-fight-3" x="3125" y="1302" font-size="28" font-weight="400" fill="#1F2430" text-anchor="start"><tspan x="3125" dy="0">55% 확률로 0.14~0.24초 뒤 공격자 쪽으로 막기</tspan></text><circle cx="3103" cy="1345" r="5" fill="#D9483B"/><text class="source-text" data-source-text="늦었으면 안 막음 · 공격자가 가까이 남으면 막음" data-parent="b-fight-3" x="3125" y="1353" font-size="28" font-weight="400" fill="#1F2430" text-anchor="start"><tspan x="3125" dy="0">늦었으면 안 막음 · 공격자가 가까이 남으면 막음</tspan></text><circle cx="3103" cy="1396" r="5" fill="#D9483B"/><text class="source-text" data-source-text="교전 중 15%는 미리 막기" data-parent="b-fight-3" x="3125" y="1404" font-size="28" font-weight="400" fill="#1F2430" text-anchor="start"><tspan x="3125" dy="0">교전 중 15%는 미리 막기</tspan></text><path d="M600,1755 L650,1755" fill="none" stroke="#9150D0" stroke-width="8" stroke-linecap="round" stroke-linejoin="round" opacity="0.82"/><rect id="box-b-g-survive" data-box="b-g-survive" x="650" y="1708" width="220" height="94" rx="22" fill="#1F2430" stroke="#9150D0" stroke-width="5"/><rect x="650" y="1708" width="14" height="94" rx="7" fill="#9150D0"/><text class="source-text" data-source-text="생존" data-parent="b-g-survive" x="765" y="1769" font-size="44" font-weight="700" fill="#FFFFFF" text-anchor="middle"><tspan x="765" dy="0">생존</tspan></text><path d="M870,1755 L905,1755 L905,1618 L940,1618" fill="none" stroke="#9150D0" stroke-width="5" stroke-linecap="round" stroke-linejoin="round" opacity="0.82"/><rect id="box-b-survive-0" data-box="b-survive-0" x="940" y="1590" width="1398" height="330" rx="20" fill="#FFFFFF" stroke="#b88de0" stroke-width="3"/><rect x="940" y="1590" width="1398" height="64" rx="18" fill="#f0e7f8"/><rect x="940" y="1636" width="1398" height="18" fill="#f0e7f8"/><circle cx="970" cy="1622" r="8" fill="#9150D0"/><text class="source-text" data-source-text="절벽 · 몰림" data-parent="b-survive-0" x="992" y="1634" font-size="34" font-weight="700" fill="#1F2430" text-anchor="start"><tspan x="992" dy="0">절벽 · 몰림</tspan></text><circle cx="970" cy="1676" r="5" fill="#9150D0"/><text class="source-text" data-source-text="물러설 때 절벽 쪽으로는 안 감" data-parent="b-survive-0" x="992" y="1684" font-size="28" font-weight="400" fill="#1F2430" text-anchor="start"><tspan x="992" dy="0">물러설 때 절벽 쪽으로는 안 감</tspan></text><circle cx="970" cy="1727" r="5" fill="#9150D0"/><text class="source-text" data-source-text="몰리면 같은 층 상대를 뛰어넘기 (2.5초에 1번)" data-parent="b-survive-0" x="992" y="1735" font-size="28" font-weight="400" fill="#1F2430" text-anchor="start"><tspan x="992" dy="0">몰리면 같은 층 상대를 뛰어넘기 (2.5초에 1번)</tspan></text><circle cx="970" cy="1778" r="5" fill="#9150D0"/><text class="source-text" data-source-text="못 넘으면 자리 지키기 · 50%는 미리 막기" data-parent="b-survive-0" x="992" y="1786" font-size="28" font-weight="400" fill="#1F2430" text-anchor="start"><tspan x="992" dy="0">못 넘으면 자리 지키기 · 50%는 미리 막기</tspan></text><path d="M870,1755 L905,1755 L905,1618 L2362,1618" fill="none" stroke="#9150D0" stroke-width="5" stroke-linecap="round" stroke-linejoin="round" opacity="0.82"/><rect id="box-b-survive-1" data-box="b-survive-1" x="2362" y="1590" width="1398" height="330" rx="20" fill="#FFFFFF" stroke="#b88de0" stroke-width="3"/><rect x="2362" y="1590" width="1398" height="64" rx="18" fill="#f0e7f8"/><rect x="2362" y="1636" width="1398" height="18" fill="#f0e7f8"/><circle cx="2392" cy="1622" r="8" fill="#9150D0"/><text class="source-text" data-source-text="복귀" data-parent="b-survive-1" x="2414" y="1634" font-size="34" font-weight="700" fill="#1F2430" text-anchor="start"><tspan x="2414" dy="0">복귀</tspan></text><circle cx="2392" cy="1676" r="5" fill="#9150D0"/><text class="source-text" data-source-text="낙하 궤적(1초 앞)이 바닥에 안 닿으면 시작" data-parent="b-survive-1" x="2414" y="1684" font-size="28" font-weight="400" fill="#1F2430" text-anchor="start"><tspan x="2414" dy="0">낙하 궤적(1초 앞)이 바닥에 안 닿으면 시작</tspan></text><circle cx="2392" cy="1727" r="5" fill="#9150D0"/><text class="source-text" data-source-text="가장 가까운 발판으로 (위쪽 발판은 덜 선호)" data-parent="b-survive-1" x="2414" y="1735" font-size="28" font-weight="400" fill="#1F2430" text-anchor="start"><tspan x="2414" dy="0">가장 가까운 발판으로 (위쪽 발판은 덜 선호)</tspan></text><circle cx="2392" cy="1778" r="5" fill="#9150D0"/><text class="source-text" data-source-text="발판보다 낮아지면 공중 점프" data-parent="b-survive-1" x="2414" y="1786" font-size="28" font-weight="400" fill="#1F2430" text-anchor="start"><tspan x="2414" dy="0">발판보다 낮아지면 공중 점프</tspan></text><circle cx="2392" cy="1829" r="5" fill="#9150D0"/><text class="source-text" data-source-text="점프가 없으면 복귀 기술 (Frey · Nova · Rio)" data-parent="b-survive-1" x="2414" y="1837" font-size="28" font-weight="400" fill="#1F2430" text-anchor="start"><tspan x="2414" dy="0">점프가 없으면 복귀 기술 (Frey · Nova · Rio)</tspan></text><path d="M600,2350 L650,2350" fill="none" stroke="#FFB53D" stroke-width="8" stroke-linecap="round" stroke-linejoin="round" opacity="0.82"/><rect id="box-characters-label" data-box="characters-label" x="650" y="2303" width="440" height="94" rx="22" fill="#1F2430" stroke="#FFB53D" stroke-width="5"/><rect x="650" y="2303" width="14" height="94" rx="7" fill="#FFB53D"/><text class="source-text" data-source-text="캐릭터별 추가 행동" data-parent="characters-label" x="876" y="2364" font-size="44" font-weight="700" fill="#FFFFFF" text-anchor="middle"><tspan x="876" dy="0">캐릭터별 추가 행동</tspan></text><path d="M1090,2350 L1110,2350 L1110,2100 L1402.5,2100 L1402.5,2128" fill="none" stroke="#FFB85C" stroke-width="5" stroke-linecap="round" stroke-linejoin="round" opacity="0.82"/><rect id="box-b-char-frey" data-box="b-char-frey" x="1140" y="2128" width="525" height="570" rx="24" fill="#FFFFFF" stroke="#FFB85C" stroke-width="4"/><rect x="1140" y="2128" width="525" height="126" rx="22" fill="#fff8ef"/><rect x="1140" y="2233" width="525" height="22" fill="#fff8ef"/><rect x="1164" y="2146" width="92" height="92" rx="24" fill="#E7EBF4" stroke="#FFB85C" stroke-width="4"/><image href="../../smash-nine-prototype/assets/art/frey/frey_face.png" x="1164" y="2146" width="92" height="92" preserveAspectRatio="xMidYMid slice" style="image-rendering:pixelated"/><text class="source-text" data-source-text="Frey" data-parent="b-char-frey" x="1278" y="2181" font-size="36" font-weight="700" fill="#1F2430" text-anchor="start"><tspan x="1278" dy="0">Frey</tspan></text><text class="source-text" data-source-text="근접 돌진" data-parent="b-char-frey" x="1278" y="2220" font-size="28" font-weight="700" fill="#4B5264" text-anchor="start"><tspan x="1278" dy="0">근접 돌진</tspan></text><text class="source-text" data-source-text="최소 68 · 최대 255 · 공격 300px" data-parent="b-char-frey" x="1164" y="2285" font-size="28" font-weight="700" fill="#1F2430" text-anchor="start"><tspan x="1164" dy="0">최소 68 · 최대 255 · 공격 300px</tspan></text><circle cx="1167" cy="2325" r="5" fill="#FFB85C"/><text class="source-text" data-source-text="K 돌진 베기: 앞에 바닥이 충분할 때만, 거의 수평으로" data-parent="b-char-frey" x="1188" y="2333" font-size="28" font-weight="400" fill="#1F2430" text-anchor="start"><tspan x="1188" dy="0">K 돌진 베기: 앞에 바닥이 충분할</tspan><tspan x="1188" dy="36">때만, 거의 수평으로</tspan></text><circle cx="1167" cy="2408" r="5" fill="#FFB85C"/><text class="source-text" data-source-text="복귀: K 돌진을 거리에 상관없이 (최대 2번)" data-parent="b-char-frey" x="1188" y="2416" font-size="28" font-weight="400" fill="#1F2430" text-anchor="start"><tspan x="1188" dy="0">복귀: K 돌진을 거리에 상관없이</tspan><tspan x="1188" dy="36">(최대 2번)</tspan></text><circle cx="1167" cy="2491" r="5" fill="#FFB85C"/><text class="source-text" data-source-text="궁극기 사거리 360px" data-parent="b-char-frey" x="1188" y="2499" font-size="28" font-weight="400" fill="#1F2430" text-anchor="start"><tspan x="1188" dy="0">궁극기 사거리 360px</tspan></text><path d="M1090,2350 L1110,2350 L1110,2100 L1942.5,2100 L1942.5,2128" fill="none" stroke="#FF7AE6" stroke-width="5" stroke-linecap="round" stroke-linejoin="round" opacity="0.82"/><rect id="box-b-char-luna" data-box="b-char-luna" x="1680" y="2128" width="525" height="570" rx="24" fill="#FFFFFF" stroke="#FF7AE6" stroke-width="4"/><rect x="1680" y="2128" width="525" height="126" rx="22" fill="#fff2fd"/><rect x="1680" y="2233" width="525" height="22" fill="#fff2fd"/><rect x="1704" y="2146" width="92" height="92" rx="24" fill="#E7EBF4" stroke="#FF7AE6" stroke-width="4"/><image href="../../smash-nine-prototype/assets/art/luna/luna_face.png" x="1704" y="2146" width="92" height="92" preserveAspectRatio="xMidYMid slice" style="image-rendering:pixelated"/><text class="source-text" data-source-text="Luna" data-parent="b-char-luna" x="1818" y="2181" font-size="36" font-weight="700" fill="#1F2430" text-anchor="start"><tspan x="1818" dy="0">Luna</tspan></text><text class="source-text" data-source-text="중거리" data-parent="b-char-luna" x="1818" y="2220" font-size="28" font-weight="700" fill="#4B5264" text-anchor="start"><tspan x="1818" dy="0">중거리</tspan></text><text class="source-text" data-source-text="최소 165 · 최대 435 · 공격 495px" data-parent="b-char-luna" x="1704" y="2285" font-size="28" font-weight="700" fill="#1F2430" text-anchor="start"><tspan x="1704" dy="0">최소 165 · 최대 435 · 공격 495px</tspan></text><circle cx="1707" cy="2325" r="5" fill="#FF7AE6"/><text class="source-text" data-source-text="궁극기(6초 변신): 체력 50% 이상이면 점수 +1" data-parent="b-char-luna" x="1728" y="2333" font-size="28" font-weight="400" fill="#1F2430" text-anchor="start"><tspan x="1728" dy="0">궁극기(6초 변신): 체력 50%</tspan><tspan x="1728" dy="36">이상이면 점수 +1</tspan></text><circle cx="1707" cy="2408" r="5" fill="#FF7AE6"/><text class="source-text" data-source-text="변신 4.4초 뒤 하트 레이저 자동 사용" data-parent="b-char-luna" x="1728" y="2416" font-size="28" font-weight="400" fill="#1F2430" text-anchor="start"><tspan x="1728" dy="0">변신 4.4초 뒤 하트 레이저 자동 사용</tspan></text><circle cx="1707" cy="2455" r="5" fill="#FF7AE6"/><text class="source-text" data-source-text="궁극기 사거리 315px" data-parent="b-char-luna" x="1728" y="2463" font-size="28" font-weight="400" fill="#1F2430" text-anchor="start"><tspan x="1728" dy="0">궁극기 사거리 315px</tspan></text><circle cx="1707" cy="2502" r="5" fill="#FF7AE6"/><text class="source-text" data-source-text="복귀 기술 없음 (공중 점프만)" data-parent="b-char-luna" x="1728" y="2510" font-size="28" font-weight="400" fill="#1F2430" text-anchor="start"><tspan x="1728" dy="0">복귀 기술 없음 (공중 점프만)</tspan></text><path d="M1090,2350 L1110,2350 L1110,2100 L2482.5,2100 L2482.5,2128" fill="none" stroke="#52F2FF" stroke-width="5" stroke-linecap="round" stroke-linejoin="round" opacity="0.82"/><rect id="box-b-char-nova" data-box="b-char-nova" x="2220" y="2128" width="525" height="570" rx="24" fill="#FFFFFF" stroke="#52F2FF" stroke-width="4"/><rect x="2220" y="2128" width="525" height="126" rx="22" fill="#eefeff"/><rect x="2220" y="2233" width="525" height="22" fill="#eefeff"/><rect x="2244" y="2146" width="92" height="92" rx="24" fill="#E7EBF4" stroke="#52F2FF" stroke-width="4"/><image href="../../smash-nine-prototype/assets/art/nova/nova_male_face.png" x="2244" y="2146" width="92" height="92" preserveAspectRatio="xMidYMid slice" style="image-rendering:pixelated"/><text class="source-text" data-source-text="Nova" data-parent="b-char-nova" x="2358" y="2181" font-size="36" font-weight="700" fill="#1F2430" text-anchor="start"><tspan x="2358" dy="0">Nova</tspan></text><text class="source-text" data-source-text="돌진 · 중력 투석" data-parent="b-char-nova" x="2358" y="2220" font-size="28" font-weight="700" fill="#4B5264" text-anchor="start"><tspan x="2358" dy="0">돌진 · 중력 투석</tspan></text><text class="source-text" data-source-text="최소 90 · 최대 345 · 공격 390px" data-parent="b-char-nova" x="2244" y="2285" font-size="28" font-weight="700" fill="#1F2430" text-anchor="start"><tspan x="2244" dy="0">최소 90 · 최대 345 · 공격 390px</tspan></text><circle cx="2247" cy="2325" r="5" fill="#52F2FF"/><text class="source-text" data-source-text="K 벡터 시프트: 195px 넘게 떨어졌을 때만 (거리 좁히기)" data-parent="b-char-nova" x="2268" y="2333" font-size="28" font-weight="400" fill="#1F2430" text-anchor="start"><tspan x="2268" dy="0">K 벡터 시프트: 195px 넘게 떨어졌을</tspan><tspan x="2268" dy="36">때만 (거리 좁히기)</tspan></text><circle cx="2247" cy="2408" r="5" fill="#52F2FF"/><text class="source-text" data-source-text="궁극기 조종: 궤도의 방향이 표적을 향하면 발사, 빗나가면 K로 꺾기" data-parent="b-char-nova" x="2268" y="2416" font-size="28" font-weight="400" fill="#1F2430" text-anchor="start"><tspan x="2268" dy="0">궁극기 조종: 궤도의 방향이 표적을</tspan><tspan x="2268" dy="36">향하면 발사, 빗나가면 K로 꺾기</tspan></text><circle cx="2247" cy="2491" r="5" fill="#52F2FF"/><text class="source-text" data-source-text="절벽 근처면 궁극기 점수 -3 · 궁극기 사거리 345px" data-parent="b-char-nova" x="2268" y="2499" font-size="28" font-weight="400" fill="#1F2430" text-anchor="start"><tspan x="2268" dy="0">절벽 근처면 궁극기 점수 -3 ·</tspan><tspan x="2268" dy="36">궁극기 사거리 345px</tspan></text><circle cx="2247" cy="2574" r="5" fill="#52F2FF"/><text class="source-text" data-source-text="복귀: 공중 K 벡터 시프트 (공중에서 1번)" data-parent="b-char-nova" x="2268" y="2582" font-size="28" font-weight="400" fill="#1F2430" text-anchor="start"><tspan x="2268" dy="0">복귀: 공중 K 벡터 시프트 (공중에서</tspan><tspan x="2268" dy="36">1번)</tspan></text><path d="M1090,2350 L1110,2350 L1110,2100 L3022.5,2100 L3022.5,2128" fill="none" stroke="#80B8FF" stroke-width="5" stroke-linecap="round" stroke-linejoin="round" opacity="0.82"/><rect id="box-b-char-rio" data-box="b-char-rio" x="2760" y="2128" width="525" height="570" rx="24" fill="#FFFFFF" stroke="#80B8FF" stroke-width="4"/><rect x="2760" y="2128" width="525" height="126" rx="22" fill="#f2f8ff"/><rect x="2760" y="2233" width="525" height="22" fill="#f2f8ff"/><rect x="2784" y="2146" width="92" height="92" rx="24" fill="#E7EBF4" stroke="#80B8FF" stroke-width="4"/><image href="../../smash-nine-prototype/assets/art/rio/rio_male_face.png" x="2784" y="2146" width="92" height="92" preserveAspectRatio="xMidYMid slice" style="image-rendering:pixelated"/><text class="source-text" data-source-text="Rio" data-parent="b-char-rio" x="2898" y="2181" font-size="36" font-weight="700" fill="#1F2430" text-anchor="start"><tspan x="2898" dy="0">Rio</tspan></text><text class="source-text" data-source-text="근접 암살" data-parent="b-char-rio" x="2898" y="2220" font-size="28" font-weight="700" fill="#4B5264" text-anchor="start"><tspan x="2898" dy="0">근접 암살</tspan></text><text class="source-text" data-source-text="최소 75 · 최대 300 · 공격 345px" data-parent="b-char-rio" x="2784" y="2285" font-size="28" font-weight="700" fill="#1F2430" text-anchor="start"><tspan x="2784" dy="0">최소 75 · 최대 300 · 공격 345px</tspan></text><circle cx="2787" cy="2325" r="5" fill="#80B8FF"/><text class="source-text" data-source-text="기본 공격은 180px 안에서만" data-parent="b-char-rio" x="2808" y="2333" font-size="28" font-weight="400" fill="#1F2430" text-anchor="start"><tspan x="2808" dy="0">기본 공격은 180px 안에서만</tspan></text><circle cx="2787" cy="2372" r="5" fill="#80B8FF"/><text class="source-text" data-source-text="L 룬 실드: 상대가 휘두를 때만 (225px 안이면 45%)" data-parent="b-char-rio" x="2808" y="2380" font-size="28" font-weight="400" fill="#1F2430" text-anchor="start"><tspan x="2808" dy="0">L 룬 실드: 상대가 휘두를 때만</tspan><tspan x="2808" dy="36">(225px 안이면 45%)</tspan></text><circle cx="2787" cy="2455" r="5" fill="#80B8FF"/><text class="source-text" data-source-text="공중 점프 2번: 오를 때 1번 쓰고 1번은 남김" data-parent="b-char-rio" x="2808" y="2463" font-size="28" font-weight="400" fill="#1F2430" text-anchor="start"><tspan x="2808" dy="0">공중 점프 2번: 오를 때 1번 쓰고</tspan><tspan x="2808" dy="36">1번은 남김</tspan></text><circle cx="2787" cy="2538" r="5" fill="#80B8FF"/><text class="source-text" data-source-text="복귀: 모서리 290px 안에서 모서리 위로 공중 순간이동 (1번)" data-parent="b-char-rio" x="2808" y="2546" font-size="28" font-weight="400" fill="#1F2430" text-anchor="start"><tspan x="2808" dy="0">복귀: 모서리 290px 안에서 모서리</tspan><tspan x="2808" dy="36">위로 공중 순간이동 (1번)</tspan></text><circle cx="2787" cy="2621" r="5" fill="#80B8FF"/><text class="source-text" data-source-text="궁극기 사거리 675px" data-parent="b-char-rio" x="2808" y="2629" font-size="28" font-weight="400" fill="#1F2430" text-anchor="start"><tspan x="2808" dy="0">궁극기 사거리 675px</tspan></text><path d="M1090,2350 L1110,2350 L1110,2100 L3562.5,2100 L3562.5,2128" fill="none" stroke="#9EDBFF" stroke-width="5" stroke-linecap="round" stroke-linejoin="round" opacity="0.82"/><rect id="box-b-char-yuki" data-box="b-char-yuki" x="3300" y="2128" width="525" height="570" rx="24" fill="#FFFFFF" stroke="#9EDBFF" stroke-width="4"/><rect x="3300" y="2128" width="525" height="126" rx="22" fill="#f5fbff"/><rect x="3300" y="2233" width="525" height="22" fill="#f5fbff"/><rect x="3324" y="2146" width="92" height="92" rx="24" fill="#E7EBF4" stroke="#9EDBFF" stroke-width="4"/><image href="../../smash-nine-prototype/assets/art/yuki/yuki_face.png" x="3324" y="2146" width="92" height="92" preserveAspectRatio="xMidYMid slice" style="image-rendering:pixelated"/><text class="source-text" data-source-text="Yuki" data-parent="b-char-yuki" x="3438" y="2181" font-size="36" font-weight="700" fill="#1F2430" text-anchor="start"><tspan x="3438" dy="0">Yuki</tspan></text><text class="source-text" data-source-text="원거리 견제" data-parent="b-char-yuki" x="3438" y="2220" font-size="28" font-weight="700" fill="#4B5264" text-anchor="start"><tspan x="3438" dy="0">원거리 견제</tspan></text><text class="source-text" data-source-text="최소 285 · 최대 630 · 공격 705px" data-parent="b-char-yuki" x="3324" y="2285" font-size="28" font-weight="700" fill="#1F2430" text-anchor="start"><tspan x="3324" dy="0">최소 285 · 최대 630 · 공격 705px</tspan></text><circle cx="3327" cy="2325" r="5" fill="#9EDBFF"/><text class="source-text" data-source-text="너무 가까우면 물러서며 거리 두기 (크리스털 앞에선 안 함)" data-parent="b-char-yuki" x="3348" y="2333" font-size="28" font-weight="400" fill="#1F2430" text-anchor="start"><tspan x="3348" dy="0">너무 가까우면 물러서며 거리 두기</tspan><tspan x="3348" dy="36">(크리스털 앞에선 안 함)</tspan></text><circle cx="3327" cy="2408" r="5" fill="#9EDBFF"/><text class="source-text" data-source-text="기본 공격(부적)은 360px 안에서만" data-parent="b-char-yuki" x="3348" y="2416" font-size="28" font-weight="400" fill="#1F2430" text-anchor="start"><tspan x="3348" dy="0">기본 공격(부적)은 360px 안에서만</tspan></text><circle cx="3327" cy="2455" r="5" fill="#9EDBFF"/><text class="source-text" data-source-text="K 결박 부적: 490px 안이고 같은 층일 때만" data-parent="b-char-yuki" x="3348" y="2463" font-size="28" font-weight="400" fill="#1F2430" text-anchor="start"><tspan x="3348" dy="0">K 결박 부적: 490px 안이고 같은</tspan><tspan x="3348" dy="36">층일 때만</tspan></text><circle cx="3327" cy="2538" r="5" fill="#9EDBFF"/><text class="source-text" data-source-text="몰리면 상대를 뛰어넘어 빠져나감" data-parent="b-char-yuki" x="3348" y="2546" font-size="28" font-weight="400" fill="#1F2430" text-anchor="start"><tspan x="3348" dy="0">몰리면 상대를 뛰어넘어 빠져나감</tspan></text><circle cx="3327" cy="2585" r="5" fill="#9EDBFF"/><text class="source-text" data-source-text="궁극기 사거리 615px · 복귀 기술 없음" data-parent="b-char-yuki" x="3348" y="2593" font-size="28" font-weight="400" fill="#1F2430" text-anchor="start"><tspan x="3348" dy="0">궁극기 사거리 615px · 복귀 기술</tspan><tspan x="3348" dy="36">없음</tspan></text><path d="M120 2728 H3720" stroke="#D9DEEA" stroke-width="3"/><text class="source-text" data-source-text="K · L = 기술 키, 거리는 게임 화면 px · 자세한 설명: reports/bot-behavior/README.md" data-parent="footer" x="1920" y="2772" font-size="28" font-weight="400" fill="#535B6E" text-anchor="middle"><tspan x="1920" dy="0">K · L = 기술 키, 거리는 게임 화면 px · 자세한 설명: reports/bot-behavior/README.md</tspan></text></svg>