<svg xmlns="http://www.w3.org/2000/svg" width="3840" height="2800" viewBox="0 0 3840 2800">
	<defs>
		<pattern id="grid" width="64" height="64" patternUnits="userSpaceOnUse"><path d="M64 0H0V64" fill="none" stroke="#DDE2EE" stroke-width="1" opacity="0.34"/></pattern>
	</defs>
	<rect width="3840" height="2800" fill="#F7F8FB"/><rect width="3840" height="2800" fill="url(#grid)"/><text class="source-text" data-source-text="봇 행동 원리" data-parent="title" x="120" y="112" font-size="76" font-weight="700" fill="#1F2430" text-anchor="start"><tspan x="120" dy="0">봇 행동 원리</tspan></text><text class="source-text" data-source-text="모든 봇의 기본 원리와 캐릭터별 추가 행동 · 2026-10-09 코드 기준 · 공격 범위 1.5배" data-parent="subtitle" x="120" y="178" font-size="34" font-weight="400" fill="#535B6E" text-anchor="start"><tspan x="120" dy="0">모든 봇의 기본 원리와 캐릭터별 추가 행동 · 2026-10-09 코드 기준 · 공격 범위 1.5배</tspan></text><path d="M120 214 H3720" stroke="#D9DEEA" stroke-width="3"/><g id="connectors"><path d="M1640,1038 L1550,1038 L1550,350 L1280,350" fill="none" stroke="#4E6AD8" stroke-width="8" stroke-linecap="round" stroke-linejoin="round" opacity="0.82"/><path d="M2200,1038 L2290,1038 L2290,350 L2320,350" fill="none" stroke="#2E9D63" stroke-width="8" stroke-linecap="round" stroke-linejoin="round" opacity="0.82"/><path d="M1640,1082 L1550,1082 L1550,1210 L1280,1210" fill="none" stroke="#D9483B" stroke-width="8" stroke-linecap="round" stroke-linejoin="round" opacity="0.82"/><path d="M2200,1082 L2290,1082 L2290,1210 L2320,1210" fill="none" stroke="#9150D0" stroke-width="8" stroke-linecap="round" stroke-linejoin="round" opacity="0.82"/><path d="M1920,1130 L1920,2140" fill="none" stroke="#FFB53D" stroke-width="8" stroke-linecap="round" stroke-linejoin="round" opacity="0.82"/></g><rect id="box-root" data-box="root" x="1640" y="960" width="560" height="170" rx="34" fill="#1F2430" stroke="#1F2430" stroke-width="0"/><rect x="1658" y="978" width="10" height="134" rx="5" fill="#FFB53D"/><text class="source-text" data-source-text="기본 봇
(모든 캐릭터 공통)" data-parent="root" x="1930" y="1026" font-size="46" font-weight="700" fill="#FFFFFF" text-anchor="middle"><tspan x="1930" dy="0">기본 봇</tspan><tspan x="1930" dy="56">(모든 캐릭터 공통)</tspan></text><rect x="80" y="285" width="1440" height="720" rx="30" fill="#f8f9fd" stroke="#afbced" stroke-width="3"/><rect id="box-a-g-think" data-box="a-g-think" x="1260" y="303" width="230" height="94" rx="22" fill="#1F2430" stroke="#4E6AD8" stroke-width="5"/><rect x="1260" y="303" width="14" height="94" rx="7" fill="#4E6AD8"/><text class="source-text" data-source-text="판단" data-parent="a-g-think" x="1380" y="364" font-size="44" font-weight="700" fill="#FFFFFF" text-anchor="middle"><tspan x="1380" dy="0">판단</tspan></text><rect id="box-a-think-0" data-box="a-think-0" x="108" y="415" width="430" height="562" rx="20" fill="#FFFFFF" stroke="#8c9ee6" stroke-width="3"/><rect x="108" y="415" width="430" height="64" rx="18" fill="#e6eafa"/><rect x="108" y="461" width="430" height="18" fill="#e6eafa"/><circle cx="138" cy="447" r="8" fill="#4E6AD8"/><text class="source-text" data-source-text="판단 순서" data-parent="a-think-0" x="160" y="459" font-size="34" font-weight="700" fill="#1F2430" text-anchor="start"><tspan x="160" dy="0">판단 순서</tspan></text><circle cx="138" cy="501" r="5" fill="#4E6AD8"/><text class="source-text" data-source-text="맞는 중(경직)엔 입력 없음" data-parent="a-think-0" x="160" y="509" font-size="28" font-weight="400" fill="#1F2430" text-anchor="start"><tspan x="160" dy="0">맞는 중(경직)엔 입력 없음</tspan></text><circle cx="138" cy="552" r="5" fill="#4E6AD8"/><text class="source-text" data-source-text="떨어지면 복귀가 최우선" data-parent="a-think-0" x="160" y="560" font-size="28" font-weight="400" fill="#1F2430" text-anchor="start"><tspan x="160" dy="0">떨어지면 복귀가 최우선</tspan></text><circle cx="138" cy="603" r="5" fill="#4E6AD8"/><text class="source-text" data-source-text="0.35~0.7초마다 할 일 다시 고르기" data-parent="a-think-0" x="160" y="611" font-size="28" font-weight="400" fill="#1F2430" text-anchor="start"><tspan x="160" dy="0">0.35~0.7초마다 할 일 다시</tspan><tspan x="160" dy="37">고르기</tspan></text><circle cx="138" cy="691" r="5" fill="#4E6AD8"/><text class="source-text" data-source-text="상태 5가지: 돌아다니기 · 쫓기 · 교전 · 포털 · 복귀" data-parent="a-think-0" x="160" y="699" font-size="28" font-weight="400" fill="#1F2430" text-anchor="start"><tspan x="160" dy="0">상태 5가지: 돌아다니기 ·</tspan><tspan x="160" dy="37">쫓기 · 교전 · 포털 · 복귀</tspan></text><rect id="box-a-think-1" data-box="a-think-1" x="564" y="415" width="430" height="562" rx="20" fill="#FFFFFF" stroke="#8c9ee6" stroke-width="3"/><rect x="564" y="415" width="430" height="64" rx="18" fill="#e6eafa"/><rect x="564" y="461" width="430" height="18" fill="#e6eafa"/><circle cx="594" cy="447" r="8" fill="#4E6AD8"/><text class="source-text" data-source-text="표적 고르기" data-parent="a-think-1" x="616" y="459" font-size="34" font-weight="700" fill="#1F2430" text-anchor="start"><tspan x="616" dy="0">표적 고르기</tspan></text><circle cx="594" cy="501" r="5" fill="#4E6AD8"/><text class="source-text" data-source-text="같은 렐름의 선수 · 몬스터 · 크리스털 중 가까운 것" data-parent="a-think-1" x="616" y="509" font-size="28" font-weight="400" fill="#1F2430" text-anchor="start"><tspan x="616" dy="0">같은 렐름의 선수 · 몬스터</tspan><tspan x="616" dy="37">· 크리스털 중 가까운 것</tspan></text><circle cx="594" cy="589" r="5" fill="#4E6AD8"/><text class="source-text" data-source-text="경기 초반엔 몬스터 · 크리스털을 더 선호 (나를 때린 선수는 예외)" data-parent="a-think-1" x="616" y="597" font-size="28" font-weight="400" fill="#1F2430" text-anchor="start"><tspan x="616" dy="0">경기 초반엔 몬스터 ·</tspan><tspan x="616" dy="37">크리스털을 더 선호 (나를</tspan><tspan x="616" dy="37">때린 선수는 예외)</tspan></text><circle cx="594" cy="714" r="5" fill="#4E6AD8"/><text class="source-text" data-source-text="중앙전이거나 4명 이하면 선수 먼저" data-parent="a-think-1" x="616" y="722" font-size="28" font-weight="400" fill="#1F2430" text-anchor="start"><tspan x="616" dy="0">중앙전이거나 4명 이하면</tspan><tspan x="616" dy="37">선수 먼저</tspan></text><circle cx="594" cy="802" r="5" fill="#4E6AD8"/><text class="source-text" data-source-text="다른 층 표적은 갈 길이 있을 때만" data-parent="a-think-1" x="616" y="810" font-size="28" font-weight="400" fill="#1F2430" text-anchor="start"><tspan x="616" dy="0">다른 층 표적은 갈 길이 있을</tspan><tspan x="616" dy="37">때만</tspan></text><rect id="box-a-think-2" data-box="a-think-2" x="1020" y="415" width="430" height="562" rx="20" fill="#FFFFFF" stroke="#8c9ee6" stroke-width="3"/><rect x="1020" y="415" width="430" height="64" rx="18" fill="#e6eafa"/><rect x="1020" y="461" width="430" height="18" fill="#e6eafa"/><circle cx="1050" cy="447" r="8" fill="#4E6AD8"/><text class="source-text" data-source-text="표적 포기" data-parent="a-think-2" x="1072" y="459" font-size="34" font-weight="700" fill="#1F2430" text-anchor="start"><tspan x="1072" dy="0">표적 포기</tspan></text><circle cx="1050" cy="501" r="5" fill="#4E6AD8"/><text class="source-text" data-source-text="2.5초 동안 진전 없으면 버리고 5초 무시" data-parent="a-think-2" x="1072" y="509" font-size="28" font-weight="400" fill="#1F2430" text-anchor="start"><tspan x="1072" dy="0">2.5초 동안 진전 없으면</tspan><tspan x="1072" dy="37">버리고 5초 무시</tspan></text><circle cx="1050" cy="589" r="5" fill="#4E6AD8"/><text class="source-text" data-source-text="진전 = 90px 가까워짐 · 최근에 서로 때림" data-parent="a-think-2" x="1072" y="597" font-size="28" font-weight="400" fill="#1F2430" text-anchor="start"><tspan x="1072" dy="0">진전 = 90px 가까워짐 ·</tspan><tspan x="1072" dy="37">최근에 서로 때림</tspan></text><circle cx="1050" cy="677" r="5" fill="#4E6AD8"/><text class="source-text" data-source-text="진전 = 같은 층이고 길이 열림" data-parent="a-think-2" x="1072" y="685" font-size="28" font-weight="400" fill="#1F2430" text-anchor="start"><tspan x="1072" dy="0">진전 = 같은 층이고 길이</tspan><tspan x="1072" dy="37">열림</tspan></text><circle cx="1050" cy="765" r="5" fill="#4E6AD8"/><text class="source-text" data-source-text="층은 서 있는 발판으로 판단 (점프 중이어도 같은 층)" data-parent="a-think-2" x="1072" y="773" font-size="28" font-weight="400" fill="#1F2430" text-anchor="start"><tspan x="1072" dy="0">층은 서 있는 발판으로 판단</tspan><tspan x="1072" dy="37">(점프 중이어도 같은 층)</tspan></text><rect x="2320" y="285" width="1440" height="720" rx="30" fill="#f7fbf9" stroke="#a1d3b9" stroke-width="3"/><rect id="box-a-g-move" data-box="a-g-move" x="2320" y="303" width="230" height="94" rx="22" fill="#1F2430" stroke="#2E9D63" stroke-width="5"/><rect x="2320" y="303" width="14" height="94" rx="7" fill="#2E9D63"/><text class="source-text" data-source-text="이동" data-parent="a-g-move" x="2440" y="364" font-size="44" font-weight="700" fill="#FFFFFF" text-anchor="middle"><tspan x="2440" dy="0">이동</tspan></text><rect id="box-a-move-0" data-box="a-move-0" x="2348" y="415" width="430" height="562" rx="20" fill="#FFFFFF" stroke="#77bf9a" stroke-width="3"/><rect x="2348" y="415" width="430" height="64" rx="18" fill="#e2f1e9"/><rect x="2348" y="461" width="430" height="18" fill="#e2f1e9"/><circle cx="2378" cy="447" r="8" fill="#2E9D63"/><text class="source-text" data-source-text="길찾기" data-parent="a-move-0" x="2400" y="459" font-size="34" font-weight="700" fill="#1F2430" text-anchor="start"><tspan x="2400" dy="0">길찾기</tspan></text><circle cx="2378" cy="501" r="5" fill="#2E9D63"/><text class="source-text" data-source-text="같은 높이면 곧장, 다른 층이면 발판 지도로 길찾기" data-parent="a-move-0" x="2400" y="509" font-size="28" font-weight="400" fill="#1F2430" text-anchor="start"><tspan x="2400" dy="0">같은 높이면 곧장, 다른</tspan><tspan x="2400" dy="37">층이면 발판 지도로 길찾기</tspan></text><circle cx="2378" cy="589" r="5" fill="#2E9D63"/><text class="source-text" data-source-text="건널 수 있는 틈만: 점프 172px · 낙하 300px" data-parent="a-move-0" x="2400" y="597" font-size="28" font-weight="400" fill="#1F2430" text-anchor="start"><tspan x="2400" dy="0">건널 수 있는 틈만: 점프</tspan><tspan x="2400" dy="37">172px · 낙하 300px</tspan></text><circle cx="2378" cy="677" r="5" fill="#2E9D63"/><text class="source-text" data-source-text="오르기는 한 번 점프 높이까지 (마지막 공중 점프는 복귀용)" data-parent="a-move-0" x="2400" y="685" font-size="28" font-weight="400" fill="#1F2430" text-anchor="start"><tspan x="2400" dy="0">오르기는 한 번 점프</tspan><tspan x="2400" dy="37">높이까지 (마지막 공중</tspan><tspan x="2400" dy="37">점프는 복귀용)</tspan></text><circle cx="2378" cy="802" r="5" fill="#2E9D63"/><text class="source-text" data-source-text="착지할 곳 없으면 멈춤 · 0.45초 막히면 점프" data-parent="a-move-0" x="2400" y="810" font-size="28" font-weight="400" fill="#1F2430" text-anchor="start"><tspan x="2400" dy="0">착지할 곳 없으면 멈춤 ·</tspan><tspan x="2400" dy="37">0.45초 막히면 점프</tspan></text><rect id="box-a-move-1" data-box="a-move-1" x="2804" y="415" width="430" height="562" rx="20" fill="#FFFFFF" stroke="#77bf9a" stroke-width="3"/><rect x="2804" y="415" width="430" height="64" rx="18" fill="#e2f1e9"/><rect x="2804" y="461" width="430" height="18" fill="#e2f1e9"/><circle cx="2834" cy="447" r="8" fill="#2E9D63"/><text class="source-text" data-source-text="포털 · 후퇴" data-parent="a-move-1" x="2856" y="459" font-size="34" font-weight="700" fill="#1F2430" text-anchor="start"><tspan x="2856" dy="0">포털 · 후퇴</tspan></text><circle cx="2834" cy="501" r="5" fill="#2E9D63"/><text class="source-text" data-source-text="렐름 붕괴 경고: 포털로 탈출" data-parent="a-move-1" x="2856" y="509" font-size="28" font-weight="400" fill="#1F2430" text-anchor="start"><tspan x="2856" dy="0">렐름 붕괴 경고: 포털로 탈출</tspan></text><circle cx="2834" cy="552" r="5" fill="#2E9D63"/><text class="source-text" data-source-text="체력 30% 미만(중앙전 전): 빈 렐름으로, 없으면 4초 물러서기" data-parent="a-move-1" x="2856" y="560" font-size="28" font-weight="400" fill="#1F2430" text-anchor="start"><tspan x="2856" dy="0">체력 30% 미만(중앙전 전):</tspan><tspan x="2856" dy="37">빈 렐름으로, 없으면 4초</tspan><tspan x="2856" dy="37">물러서기</tspan></text><circle cx="2834" cy="677" r="5" fill="#2E9D63"/><text class="source-text" data-source-text="표적 없이 4초: 가끔 다른 렐름으로" data-parent="a-move-1" x="2856" y="685" font-size="28" font-weight="400" fill="#1F2430" text-anchor="start"><tspan x="2856" dy="0">표적 없이 4초: 가끔 다른</tspan><tspan x="2856" dy="37">렐름으로</tspan></text><circle cx="2834" cy="765" r="5" fill="#2E9D63"/><text class="source-text" data-source-text="포털 이동 뒤 8초는 머묾" data-parent="a-move-1" x="2856" y="773" font-size="28" font-weight="400" fill="#1F2430" text-anchor="start"><tspan x="2856" dy="0">포털 이동 뒤 8초는 머묾</tspan></text><rect id="box-a-move-2" data-box="a-move-2" x="3260" y="415" width="430" height="562" rx="20" fill="#FFFFFF" stroke="#77bf9a" stroke-width="3"/><rect x="3260" y="415" width="430" height="64" rx="18" fill="#e2f1e9"/><rect x="3260" y="461" width="430" height="18" fill="#e2f1e9"/><circle cx="3290" cy="447" r="8" fill="#2E9D63"/><text class="source-text" data-source-text="지형 위험" data-parent="a-move-2" x="3312" y="459" font-size="34" font-weight="700" fill="#1F2430" text-anchor="start"><tspan x="3312" dy="0">지형 위험</tspan></text><circle cx="3290" cy="501" r="5" fill="#2E9D63"/><text class="source-text" data-source-text="경고를 보면 80%만 반응" data-parent="a-move-2" x="3312" y="509" font-size="28" font-weight="400" fill="#1F2430" text-anchor="start"><tspan x="3312" dy="0">경고를 보면 80%만 반응</tspan></text><circle cx="3290" cy="552" r="5" fill="#2E9D63"/><text class="source-text" data-source-text="지진 직전 점프 · 분출 · 광선 기둥 피하기" data-parent="a-move-2" x="3312" y="560" font-size="28" font-weight="400" fill="#1F2430" text-anchor="start"><tspan x="3312" dy="0">지진 직전 점프 · 분출 ·</tspan><tspan x="3312" dy="37">광선 기둥 피하기</tspan></text><rect x="80" y="1140" width="1440" height="980" rx="30" fill="#fdf8f7" stroke="#eeada7" stroke-width="3"/><rect id="box-a-g-fight" data-box="a-g-fight" x="1260" y="1163" width="230" height="94" rx="22" fill="#1F2430" stroke="#D9483B" stroke-width="5"/><rect x="1260" y="1163" width="14" height="94" rx="7" fill="#D9483B"/><text class="source-text" data-source-text="전투" data-parent="a-g-fight" x="1380" y="1224" font-size="44" font-weight="700" fill="#FFFFFF" text-anchor="middle"><tspan x="1380" dy="0">전투</tspan></text><rect id="box-a-fight-0" data-box="a-fight-0" x="108" y="1270" width="670" height="410" rx="20" fill="#FFFFFF" stroke="#e68880" stroke-width="3"/><rect x="108" y="1270" width="670" height="64" rx="18" fill="#fae5e4"/><rect x="108" y="1316" width="670" height="18" fill="#fae5e4"/><circle cx="138" cy="1302" r="8" fill="#D9483B"/><text class="source-text" data-source-text="교전 거리" data-parent="a-fight-0" x="160" y="1314" font-size="34" font-weight="700" fill="#1F2430" text-anchor="start"><tspan x="160" dy="0">교전 거리</tspan></text><circle cx="138" cy="1356" r="5" fill="#D9483B"/><text class="source-text" data-source-text="캐릭터마다 최소 · 최대 · 공격 거리" data-parent="a-fight-0" x="160" y="1364" font-size="28" font-weight="400" fill="#1F2430" text-anchor="start"><tspan x="160" dy="0">캐릭터마다 최소 · 최대 · 공격 거리</tspan></text><circle cx="138" cy="1407" r="5" fill="#D9483B"/><text class="source-text" data-source-text="최대보다 멀면 다가가기 · 뛰어들기" data-parent="a-fight-0" x="160" y="1415" font-size="28" font-weight="400" fill="#1F2430" text-anchor="start"><tspan x="160" dy="0">최대보다 멀면 다가가기 · 뛰어들기</tspan></text><circle cx="138" cy="1458" r="5" fill="#D9483B"/><text class="source-text" data-source-text="그 사이면 멈춤 · 가로지르기 · 다가가기 · 뛰어들기 섞기" data-parent="a-fight-0" x="160" y="1466" font-size="28" font-weight="400" fill="#1F2430" text-anchor="start"><tspan x="160" dy="0">그 사이면 멈춤 · 가로지르기 · 다가가기 ·</tspan><tspan x="160" dy="37">뛰어들기 섞기</tspan></text><circle cx="138" cy="1546" r="5" fill="#D9483B"/><text class="source-text" data-source-text="0.4~0.9초마다 바꾸고 같은 행동은 연달아 안 함" data-parent="a-fight-0" x="160" y="1554" font-size="28" font-weight="400" fill="#1F2430" text-anchor="start"><tspan x="160" dy="0">0.4~0.9초마다 바꾸고 같은 행동은 연달아 안</tspan><tspan x="160" dy="37">함</tspan></text><rect id="box-a-fight-1" data-box="a-fight-1" x="804" y="1270" width="670" height="410" rx="20" fill="#FFFFFF" stroke="#e68880" stroke-width="3"/><rect x="804" y="1270" width="670" height="64" rx="18" fill="#fae5e4"/><rect x="804" y="1316" width="670" height="18" fill="#fae5e4"/><circle cx="834" cy="1302" r="8" fill="#D9483B"/><text class="source-text" data-source-text="공격" data-parent="a-fight-1" x="856" y="1314" font-size="34" font-weight="700" fill="#1F2430" text-anchor="start"><tspan x="856" dy="0">공격</tspan></text><circle cx="834" cy="1356" r="5" fill="#D9483B"/><text class="source-text" data-source-text="공격 거리 안에서만 · 0.5~1초 간격" data-parent="a-fight-1" x="856" y="1364" font-size="28" font-weight="400" fill="#1F2430" text-anchor="start"><tspan x="856" dy="0">공격 거리 안에서만 · 0.5~1초 간격</tspan></text><circle cx="834" cy="1407" r="5" fill="#D9483B"/><text class="source-text" data-source-text="가까우면 기본 82%, 그 밖엔 기본 62% · K 26% · L 12%" data-parent="a-fight-1" x="856" y="1415" font-size="28" font-weight="400" fill="#1F2430" text-anchor="start"><tspan x="856" dy="0">가까우면 기본 82%, 그 밖엔 기본 62% · K</tspan><tspan x="856" dy="37">26% · L 12%</tspan></text><circle cx="834" cy="1495" r="5" fill="#D9483B"/><text class="source-text" data-source-text="가파르게 위 · 아래인 표적엔 위 · 아래 공격" data-parent="a-fight-1" x="856" y="1503" font-size="28" font-weight="400" fill="#1F2430" text-anchor="start"><tspan x="856" dy="0">가파르게 위 · 아래인 표적엔 위 · 아래 공격</tspan></text><circle cx="834" cy="1546" r="5" fill="#D9483B"/><text class="source-text" data-source-text="발밑이 낭떠러지면 공중 아래 공격 안 함" data-parent="a-fight-1" x="856" y="1554" font-size="28" font-weight="400" fill="#1F2430" text-anchor="start"><tspan x="856" dy="0">발밑이 낭떠러지면 공중 아래 공격 안 함</tspan></text><rect id="box-a-fight-2" data-box="a-fight-2" x="108" y="1698" width="670" height="410" rx="20" fill="#FFFFFF" stroke="#e68880" stroke-width="3"/><rect x="108" y="1698" width="670" height="64" rx="18" fill="#fae5e4"/><rect x="108" y="1744" width="670" height="18" fill="#fae5e4"/><circle cx="138" cy="1730" r="8" fill="#D9483B"/><text class="source-text" data-source-text="궁극기" data-parent="a-fight-2" x="160" y="1742" font-size="34" font-weight="700" fill="#1F2430" text-anchor="start"><tspan x="160" dy="0">궁극기</tspan></text><circle cx="138" cy="1784" r="5" fill="#D9483B"/><text class="source-text" data-source-text="선수가 표적일 때 기회 점수 3점 이상이면 70% 확률로 사용" data-parent="a-fight-2" x="160" y="1792" font-size="28" font-weight="400" fill="#1F2430" text-anchor="start"><tspan x="160" dy="0">선수가 표적일 때 기회 점수 3점 이상이면 70%</tspan><tspan x="160" dy="37">확률로 사용</tspan></text><circle cx="138" cy="1872" r="5" fill="#D9483B"/><text class="source-text" data-source-text="+2 사거리 안 · +1 표적 체력 35% 이하" data-parent="a-fight-2" x="160" y="1880" font-size="28" font-weight="400" fill="#1F2430" text-anchor="start"><tspan x="160" dy="0">+2 사거리 안 · +1 표적 체력 35% 이하</tspan></text><circle cx="138" cy="1923" r="5" fill="#D9483B"/><text class="source-text" data-source-text="+1 표적 경직 · 공격 중 · +1 근처에 다른 상대" data-parent="a-fight-2" x="160" y="1931" font-size="28" font-weight="400" fill="#1F2430" text-anchor="start"><tspan x="160" dy="0">+1 표적 경직 · 공격 중 · +1 근처에 다른 상대</tspan></text><circle cx="138" cy="1974" r="5" fill="#D9483B"/><text class="source-text" data-source-text="준비된 지 12초가 지나면 2점에도 사용" data-parent="a-fight-2" x="160" y="1982" font-size="28" font-weight="400" fill="#1F2430" text-anchor="start"><tspan x="160" dy="0">준비된 지 12초가 지나면 2점에도 사용</tspan></text><rect id="box-a-fight-3" data-box="a-fight-3" x="804" y="1698" width="670" height="410" rx="20" fill="#FFFFFF" stroke="#e68880" stroke-width="3"/><rect x="804" y="1698" width="670" height="64" rx="18" fill="#fae5e4"/><rect x="804" y="1744" width="670" height="18" fill="#fae5e4"/><circle cx="834" cy="1730" r="8" fill="#D9483B"/><text class="source-text" data-source-text="가드" data-parent="a-fight-3" x="856" y="1742" font-size="34" font-weight="700" fill="#1F2430" text-anchor="start"><tspan x="856" dy="0">가드</tspan></text><circle cx="834" cy="1784" r="5" fill="#D9483B"/><text class="source-text" data-source-text="상대가 휘두르기 시작하면 감지 (사거리 안, 나를 볼 때)" data-parent="a-fight-3" x="856" y="1792" font-size="28" font-weight="400" fill="#1F2430" text-anchor="start"><tspan x="856" dy="0">상대가 휘두르기 시작하면 감지 (사거리 안,</tspan><tspan x="856" dy="37">나를 볼 때)</tspan></text><circle cx="834" cy="1872" r="5" fill="#D9483B"/><text class="source-text" data-source-text="55% 확률로 0.14~0.24초 뒤 공격자 쪽으로 막기" data-parent="a-fight-3" x="856" y="1880" font-size="28" font-weight="400" fill="#1F2430" text-anchor="start"><tspan x="856" dy="0">55% 확률로 0.14~0.24초 뒤 공격자 쪽으로</tspan><tspan x="856" dy="37">막기</tspan></text><circle cx="834" cy="1960" r="5" fill="#D9483B"/><text class="source-text" data-source-text="늦었으면 안 막음 · 공격자가 가까이 남으면 막음" data-parent="a-fight-3" x="856" y="1968" font-size="28" font-weight="400" fill="#1F2430" text-anchor="start"><tspan x="856" dy="0">늦었으면 안 막음 · 공격자가 가까이 남으면</tspan><tspan x="856" dy="37">막음</tspan></text><circle cx="834" cy="2048" r="5" fill="#D9483B"/><text class="source-text" data-source-text="교전 중 15%는 미리 막기" data-parent="a-fight-3" x="856" y="2056" font-size="28" font-weight="400" fill="#1F2430" text-anchor="start"><tspan x="856" dy="0">교전 중 15%는 미리 막기</tspan></text><rect x="2320" y="1140" width="1440" height="805" rx="30" fill="#fbf8fd" stroke="#ceb0ea" stroke-width="3"/><rect id="box-a-g-survive" data-box="a-g-survive" x="2320" y="1163" width="230" height="94" rx="22" fill="#1F2430" stroke="#9150D0" stroke-width="5"/><rect x="2320" y="1163" width="14" height="94" rx="7" fill="#9150D0"/><text class="source-text" data-source-text="생존" data-parent="a-g-survive" x="2440" y="1224" font-size="44" font-weight="700" fill="#FFFFFF" text-anchor="middle"><tspan x="2440" dy="0">생존</tspan></text><rect id="box-a-survive-0" data-box="a-survive-0" x="2348" y="1270" width="430" height="647" rx="20" fill="#FFFFFF" stroke="#b88de0" stroke-width="3"/><rect x="2348" y="1270" width="430" height="64" rx="18" fill="#f0e7f8"/><rect x="2348" y="1316" width="430" height="18" fill="#f0e7f8"/><circle cx="2378" cy="1302" r="8" fill="#9150D0"/><text class="source-text" data-source-text="절벽 · 몰림" data-parent="a-survive-0" x="2400" y="1314" font-size="34" font-weight="700" fill="#1F2430" text-anchor="start"><tspan x="2400" dy="0">절벽 · 몰림</tspan></text><circle cx="2378" cy="1356" r="5" fill="#9150D0"/><text class="source-text" data-source-text="물러설 때 절벽 쪽으로는 안 감" data-parent="a-survive-0" x="2400" y="1364" font-size="28" font-weight="400" fill="#1F2430" text-anchor="start"><tspan x="2400" dy="0">물러설 때 절벽 쪽으로는 안</tspan><tspan x="2400" dy="37">감</tspan></text><circle cx="2378" cy="1444" r="5" fill="#9150D0"/><text class="source-text" data-source-text="몰리면 같은 층 상대를 뛰어넘기 (2.5초에 1번)" data-parent="a-survive-0" x="2400" y="1452" font-size="28" font-weight="400" fill="#1F2430" text-anchor="start"><tspan x="2400" dy="0">몰리면 같은 층 상대를</tspan><tspan x="2400" dy="37">뛰어넘기 (2.5초에 1번)</tspan></text><circle cx="2378" cy="1532" r="5" fill="#9150D0"/><text class="source-text" data-source-text="못 넘으면 자리 지키기 · 50%는 미리 막기" data-parent="a-survive-0" x="2400" y="1540" font-size="28" font-weight="400" fill="#1F2430" text-anchor="start"><tspan x="2400" dy="0">못 넘으면 자리 지키기 ·</tspan><tspan x="2400" dy="37">50%는 미리 막기</tspan></text><rect id="box-a-survive-1" data-box="a-survive-1" x="2804" y="1270" width="430" height="647" rx="20" fill="#FFFFFF" stroke="#b88de0" stroke-width="3"/><rect x="2804" y="1270" width="430" height="64" rx="18" fill="#f0e7f8"/><rect x="2804" y="1316" width="430" height="18" fill="#f0e7f8"/><circle cx="2834" cy="1302" r="8" fill="#9150D0"/><text class="source-text" data-source-text="복귀" data-parent="a-survive-1" x="2856" y="1314" font-size="34" font-weight="700" fill="#1F2430" text-anchor="start"><tspan x="2856" dy="0">복귀</tspan></text><circle cx="2834" cy="1356" r="5" fill="#9150D0"/><text class="source-text" data-source-text="낙하 궤적(1초 앞)이 바닥에 안 닿으면 시작" data-parent="a-survive-1" x="2856" y="1364" font-size="28" font-weight="400" fill="#1F2430" text-anchor="start"><tspan x="2856" dy="0">낙하 궤적(1초 앞)이 바닥에</tspan><tspan x="2856" dy="37">안 닿으면 시작</tspan></text><circle cx="2834" cy="1444" r="5" fill="#9150D0"/><text class="source-text" data-source-text="가장 가까운 발판으로 (위쪽 발판은 덜 선호)" data-parent="a-survive-1" x="2856" y="1452" font-size="28" font-weight="400" fill="#1F2430" text-anchor="start"><tspan x="2856" dy="0">가장 가까운 발판으로 (위쪽</tspan><tspan x="2856" dy="37">발판은 덜 선호)</tspan></text><circle cx="2834" cy="1532" r="5" fill="#9150D0"/><text class="source-text" data-source-text="발판보다 낮아지면 공중 점프" data-parent="a-survive-1" x="2856" y="1540" font-size="28" font-weight="400" fill="#1F2430" text-anchor="start"><tspan x="2856" dy="0">발판보다 낮아지면 공중 점프</tspan></text><circle cx="2834" cy="1583" r="5" fill="#9150D0"/><text class="source-text" data-source-text="점프가 없으면 복귀 기술 (Frey · Nova · Rio)" data-parent="a-survive-1" x="2856" y="1591" font-size="28" font-weight="400" fill="#1F2430" text-anchor="start"><tspan x="2856" dy="0">점프가 없으면 복귀 기술</tspan><tspan x="2856" dy="37">(Frey · Nova · Rio)</tspan></text><rect id="box-characters-label" data-box="characters-label" x="1700" y="2140" width="440" height="94" rx="22" fill="#1F2430" stroke="#FFB53D" stroke-width="5"/><rect x="1700" y="2140" width="14" height="94" rx="7" fill="#FFB53D"/><text class="source-text" data-source-text="캐릭터별 추가 행동" data-parent="characters-label" x="1926" y="2201" font-size="44" font-weight="700" fill="#FFFFFF" text-anchor="middle"><tspan x="1926" dy="0">캐릭터별 추가 행동</tspan></text><path d="M1920,2234 L1920,2242 L456,2242 L456,2250" fill="none" stroke="#FFB85C" stroke-width="6" stroke-linecap="round" stroke-linejoin="round" opacity="0.82"/><rect id="box-a-char-frey" data-box="a-char-frey" x="104" y="2250" width="704" height="475" rx="24" fill="#FFFFFF" stroke="#FFB85C" stroke-width="4"/><rect x="104" y="2250" width="704" height="126" rx="22" fill="#fff8ef"/><rect x="104" y="2355" width="704" height="22" fill="#fff8ef"/><rect x="128" y="2268" width="92" height="92" rx="24" fill="#E7EBF4" stroke="#FFB85C" stroke-width="4"/><image href="../../smash-nine-prototype/assets/art/frey/frey_face.png" x="128" y="2268" width="92" height="92" preserveAspectRatio="xMidYMid slice" style="image-rendering:pixelated"/><text class="source-text" data-source-text="Frey" data-parent="a-char-frey" x="242" y="2303" font-size="36" font-weight="700" fill="#1F2430" text-anchor="start"><tspan x="242" dy="0">Frey</tspan></text><text class="source-text" data-source-text="근접 돌진" data-parent="a-char-frey" x="242" y="2342" font-size="28" font-weight="700" fill="#4B5264" text-anchor="start"><tspan x="242" dy="0">근접 돌진</tspan></text><text class="source-text" data-source-text="최소 68 · 최대 255 · 공격 300px" data-parent="a-char-frey" x="128" y="2407" font-size="28" font-weight="700" fill="#1F2430" text-anchor="start"><tspan x="128" dy="0">최소 68 · 최대 255 · 공격 300px</tspan></text><circle cx="131" cy="2447" r="5" fill="#FFB85C"/><text class="source-text" data-source-text="K 돌진 베기: 앞에 바닥이 충분할 때만, 거의 수평으로" data-parent="a-char-frey" x="152" y="2455" font-size="28" font-weight="400" fill="#1F2430" text-anchor="start"><tspan x="152" dy="0">K 돌진 베기: 앞에 바닥이 충분할 때만, 거의</tspan><tspan x="152" dy="36">수평으로</tspan></text><circle cx="131" cy="2530" r="5" fill="#FFB85C"/><text class="source-text" data-source-text="복귀: K 돌진을 거리에 상관없이 (최대 2번)" data-parent="a-char-frey" x="152" y="2538" font-size="28" font-weight="400" fill="#1F2430" text-anchor="start"><tspan x="152" dy="0">복귀: K 돌진을 거리에 상관없이 (최대 2번)</tspan></text><circle cx="131" cy="2577" r="5" fill="#FFB85C"/><text class="source-text" data-source-text="궁극기 사거리 360px" data-parent="a-char-frey" x="152" y="2585" font-size="28" font-weight="400" fill="#1F2430" text-anchor="start"><tspan x="152" dy="0">궁극기 사거리 360px</tspan></text><path d="M1920,2234 L1920,2242 L1188,2242 L1188,2250" fill="none" stroke="#FF7AE6" stroke-width="6" stroke-linecap="round" stroke-linejoin="round" opacity="0.82"/><rect id="box-a-char-luna" data-box="a-char-luna" x="836" y="2250" width="704" height="475" rx="24" fill="#FFFFFF" stroke="#FF7AE6" stroke-width="4"/><rect x="836" y="2250" width="704" height="126" rx="22" fill="#fff2fd"/><rect x="836" y="2355" width="704" height="22" fill="#fff2fd"/><rect x="860" y="2268" width="92" height="92" rx="24" fill="#E7EBF4" stroke="#FF7AE6" stroke-width="4"/><image href="../../smash-nine-prototype/assets/art/luna/luna_face.png" x="860" y="2268" width="92" height="92" preserveAspectRatio="xMidYMid slice" style="image-rendering:pixelated"/><text class="source-text" data-source-text="Luna" data-parent="a-char-luna" x="974" y="2303" font-size="36" font-weight="700" fill="#1F2430" text-anchor="start"><tspan x="974" dy="0">Luna</tspan></text><text class="source-text" data-source-text="중거리" data-parent="a-char-luna" x="974" y="2342" font-size="28" font-weight="700" fill="#4B5264" text-anchor="start"><tspan x="974" dy="0">중거리</tspan></text><text class="source-text" data-source-text="최소 165 · 최대 435 · 공격 495px" data-parent="a-char-luna" x="860" y="2407" font-size="28" font-weight="700" fill="#1F2430" text-anchor="start"><tspan x="860" dy="0">최소 165 · 최대 435 · 공격 495px</tspan></text><circle cx="863" cy="2447" r="5" fill="#FF7AE6"/><text class="source-text" data-source-text="궁극기(6초 변신): 체력 50% 이상이면 점수 +1" data-parent="a-char-luna" x="884" y="2455" font-size="28" font-weight="400" fill="#1F2430" text-anchor="start"><tspan x="884" dy="0">궁극기(6초 변신): 체력 50% 이상이면 점수 +1</tspan></text><circle cx="863" cy="2494" r="5" fill="#FF7AE6"/><text class="source-text" data-source-text="변신 4.4초 뒤 하트 레이저 자동 사용" data-parent="a-char-luna" x="884" y="2502" font-size="28" font-weight="400" fill="#1F2430" text-anchor="start"><tspan x="884" dy="0">변신 4.4초 뒤 하트 레이저 자동 사용</tspan></text><circle cx="863" cy="2541" r="5" fill="#FF7AE6"/><text class="source-text" data-source-text="궁극기 사거리 315px" data-parent="a-char-luna" x="884" y="2549" font-size="28" font-weight="400" fill="#1F2430" text-anchor="start"><tspan x="884" dy="0">궁극기 사거리 315px</tspan></text><circle cx="863" cy="2588" r="5" fill="#FF7AE6"/><text class="source-text" data-source-text="복귀 기술 없음 (공중 점프만)" data-parent="a-char-luna" x="884" y="2596" font-size="28" font-weight="400" fill="#1F2430" text-anchor="start"><tspan x="884" dy="0">복귀 기술 없음 (공중 점프만)</tspan></text><path d="M1920,2234 L1920,2242 L1920,2242 L1920,2250" fill="none" stroke="#52F2FF" stroke-width="6" stroke-linecap="round" stroke-linejoin="round" opacity="0.82"/><rect id="box-a-char-nova" data-box="a-char-nova" x="1568" y="2250" width="704" height="475" rx="24" fill="#FFFFFF" stroke="#52F2FF" stroke-width="4"/><rect x="1568" y="2250" width="704" height="126" rx="22" fill="#eefeff"/><rect x="1568" y="2355" width="704" height="22" fill="#eefeff"/><rect x="1592" y="2268" width="92" height="92" rx="24" fill="#E7EBF4" stroke="#52F2FF" stroke-width="4"/><image href="../../smash-nine-prototype/assets/art/nova/nova_male_face.png" x="1592" y="2268" width="92" height="92" preserveAspectRatio="xMidYMid slice" style="image-rendering:pixelated"/><text class="source-text" data-source-text="Nova" data-parent="a-char-nova" x="1706" y="2303" font-size="36" font-weight="700" fill="#1F2430" text-anchor="start"><tspan x="1706" dy="0">Nova</tspan></text><text class="source-text" data-source-text="돌진 · 중력 투석" data-parent="a-char-nova" x="1706" y="2342" font-size="28" font-weight="700" fill="#4B5264" text-anchor="start"><tspan x="1706" dy="0">돌진 · 중력 투석</tspan></text><text class="source-text" data-source-text="최소 90 · 최대 345 · 공격 390px" data-parent="a-char-nova" x="1592" y="2407" font-size="28" font-weight="700" fill="#1F2430" text-anchor="start"><tspan x="1592" dy="0">최소 90 · 최대 345 · 공격 390px</tspan></text><circle cx="1595" cy="2447" r="5" fill="#52F2FF"/><text class="source-text" data-source-text="K 벡터 시프트: 195px 넘게 떨어졌을 때만 (거리 좁히기)" data-parent="a-char-nova" x="1616" y="2455" font-size="28" font-weight="400" fill="#1F2430" text-anchor="start"><tspan x="1616" dy="0">K 벡터 시프트: 195px 넘게 떨어졌을 때만 (거리</tspan><tspan x="1616" dy="36">좁히기)</tspan></text><circle cx="1595" cy="2530" r="5" fill="#52F2FF"/><text class="source-text" data-source-text="궁극기 조종: 궤도의 방향이 표적을 향하면 발사, 빗나가면 K로 꺾기" data-parent="a-char-nova" x="1616" y="2538" font-size="28" font-weight="400" fill="#1F2430" text-anchor="start"><tspan x="1616" dy="0">궁극기 조종: 궤도의 방향이 표적을 향하면 발사,</tspan><tspan x="1616" dy="36">빗나가면 K로 꺾기</tspan></text><circle cx="1595" cy="2613" r="5" fill="#52F2FF"/><text class="source-text" data-source-text="절벽 근처면 궁극기 점수 -3 · 궁극기 사거리 345px" data-parent="a-char-nova" x="1616" y="2621" font-size="28" font-weight="400" fill="#1F2430" text-anchor="start"><tspan x="1616" dy="0">절벽 근처면 궁극기 점수 -3 · 궁극기 사거리</tspan><tspan x="1616" dy="36">345px</tspan></text><circle cx="1595" cy="2696" r="5" fill="#52F2FF"/><text class="source-text" data-source-text="복귀: 공중 K 벡터 시프트 (공중에서 1번)" data-parent="a-char-nova" x="1616" y="2704" font-size="28" font-weight="400" fill="#1F2430" text-anchor="start"><tspan x="1616" dy="0">복귀: 공중 K 벡터 시프트 (공중에서 1번)</tspan></text><path d="M1920,2234 L1920,2242 L2652,2242 L2652,2250" fill="none" stroke="#80B8FF" stroke-width="6" stroke-linecap="round" stroke-linejoin="round" opacity="0.82"/><rect id="box-a-char-rio" data-box="a-char-rio" x="2300" y="2250" width="704" height="475" rx="24" fill="#FFFFFF" stroke="#80B8FF" stroke-width="4"/><rect x="2300" y="2250" width="704" height="126" rx="22" fill="#f2f8ff"/><rect x="2300" y="2355" width="704" height="22" fill="#f2f8ff"/><rect x="2324" y="2268" width="92" height="92" rx="24" fill="#E7EBF4" stroke="#80B8FF" stroke-width="4"/><image href="../../smash-nine-prototype/assets/art/rio/rio_male_face.png" x="2324" y="2268" width="92" height="92" preserveAspectRatio="xMidYMid slice" style="image-rendering:pixelated"/><text class="source-text" data-source-text="Rio" data-parent="a-char-rio" x="2438" y="2303" font-size="36" font-weight="700" fill="#1F2430" text-anchor="start"><tspan x="2438" dy="0">Rio</tspan></text><text class="source-text" data-source-text="근접 암살" data-parent="a-char-rio" x="2438" y="2342" font-size="28" font-weight="700" fill="#4B5264" text-anchor="start"><tspan x="2438" dy="0">근접 암살</tspan></text><text class="source-text" data-source-text="최소 75 · 최대 300 · 공격 345px" data-parent="a-char-rio" x="2324" y="2407" font-size="28" font-weight="700" fill="#1F2430" text-anchor="start"><tspan x="2324" dy="0">최소 75 · 최대 300 · 공격 345px</tspan></text><circle cx="2327" cy="2447" r="5" fill="#80B8FF"/><text class="source-text" data-source-text="기본 공격은 180px 안에서만" data-parent="a-char-rio" x="2348" y="2455" font-size="28" font-weight="400" fill="#1F2430" text-anchor="start"><tspan x="2348" dy="0">기본 공격은 180px 안에서만</tspan></text><circle cx="2327" cy="2494" r="5" fill="#80B8FF"/><text class="source-text" data-source-text="L 룬 실드: 상대가 휘두를 때만 (225px 안이면 45%)" data-parent="a-char-rio" x="2348" y="2502" font-size="28" font-weight="400" fill="#1F2430" text-anchor="start"><tspan x="2348" dy="0">L 룬 실드: 상대가 휘두를 때만 (225px 안이면</tspan><tspan x="2348" dy="36">45%)</tspan></text><circle cx="2327" cy="2577" r="5" fill="#80B8FF"/><text class="source-text" data-source-text="공중 점프 2번: 오를 때 1번 쓰고 1번은 남김" data-parent="a-char-rio" x="2348" y="2585" font-size="28" font-weight="400" fill="#1F2430" text-anchor="start"><tspan x="2348" dy="0">공중 점프 2번: 오를 때 1번 쓰고 1번은 남김</tspan></text><circle cx="2327" cy="2624" r="5" fill="#80B8FF"/><text class="source-text" data-source-text="복귀: 모서리 290px 안에서 모서리 위로 공중 순간이동 (1번)" data-parent="a-char-rio" x="2348" y="2632" font-size="28" font-weight="400" fill="#1F2430" text-anchor="start"><tspan x="2348" dy="0">복귀: 모서리 290px 안에서 모서리 위로 공중</tspan><tspan x="2348" dy="36">순간이동 (1번)</tspan></text><circle cx="2327" cy="2707" r="5" fill="#80B8FF"/><text class="source-text" data-source-text="궁극기 사거리 675px" data-parent="a-char-rio" x="2348" y="2715" font-size="28" font-weight="400" fill="#1F2430" text-anchor="start"><tspan x="2348" dy="0">궁극기 사거리 675px</tspan></text><path d="M1920,2234 L1920,2242 L3384,2242 L3384,2250" fill="none" stroke="#9EDBFF" stroke-width="6" stroke-linecap="round" stroke-linejoin="round" opacity="0.82"/><rect id="box-a-char-yuki" data-box="a-char-yuki" x="3032" y="2250" width="704" height="475" rx="24" fill="#FFFFFF" stroke="#9EDBFF" stroke-width="4"/><rect x="3032" y="2250" width="704" height="126" rx="22" fill="#f5fbff"/><rect x="3032" y="2355" width="704" height="22" fill="#f5fbff"/><rect x="3056" y="2268" width="92" height="92" rx="24" fill="#E7EBF4" stroke="#9EDBFF" stroke-width="4"/><image href="../../smash-nine-prototype/assets/art/yuki/yuki_face.png" x="3056" y="2268" width="92" height="92" preserveAspectRatio="xMidYMid slice" style="image-rendering:pixelated"/><text class="source-text" data-source-text="Yuki" data-parent="a-char-yuki" x="3170" y="2303" font-size="36" font-weight="700" fill="#1F2430" text-anchor="start"><tspan x="3170" dy="0">Yuki</tspan></text><text class="source-text" data-source-text="원거리 견제" data-parent="a-char-yuki" x="3170" y="2342" font-size="28" font-weight="700" fill="#4B5264" text-anchor="start"><tspan x="3170" dy="0">원거리 견제</tspan></text><text class="source-text" data-source-text="최소 285 · 최대 630 · 공격 705px" data-parent="a-char-yuki" x="3056" y="2407" font-size="28" font-weight="700" fill="#1F2430" text-anchor="start"><tspan x="3056" dy="0">최소 285 · 최대 630 · 공격 705px</tspan></text><circle cx="3059" cy="2447" r="5" fill="#9EDBFF"/><text class="source-text" data-source-text="너무 가까우면 물러서며 거리 두기 (크리스털 앞에선 안 함)" data-parent="a-char-yuki" x="3080" y="2455" font-size="28" font-weight="400" fill="#1F2430" text-anchor="start"><tspan x="3080" dy="0">너무 가까우면 물러서며 거리 두기 (크리스털 앞에선</tspan><tspan x="3080" dy="36">안 함)</tspan></text><circle cx="3059" cy="2530" r="5" fill="#9EDBFF"/><text class="source-text" data-source-text="기본 공격(부적)은 360px 안에서만" data-parent="a-char-yuki" x="3080" y="2538" font-size="28" font-weight="400" fill="#1F2430" text-anchor="start"><tspan x="3080" dy="0">기본 공격(부적)은 360px 안에서만</tspan></text><circle cx="3059" cy="2577" r="5" fill="#9EDBFF"/><text class="source-text" data-source-text="K 결박 부적: 490px 안이고 같은 층일 때만" data-parent="a-char-yuki" x="3080" y="2585" font-size="28" font-weight="400" fill="#1F2430" text-anchor="start"><tspan x="3080" dy="0">K 결박 부적: 490px 안이고 같은 층일 때만</tspan></text><circle cx="3059" cy="2624" r="5" fill="#9EDBFF"/><text class="source-text" data-source-text="몰리면 상대를 뛰어넘어 빠져나감" data-parent="a-char-yuki" x="3080" y="2632" font-size="28" font-weight="400" fill="#1F2430" text-anchor="start"><tspan x="3080" dy="0">몰리면 상대를 뛰어넘어 빠져나감</tspan></text><circle cx="3059" cy="2671" r="5" fill="#9EDBFF"/><text class="source-text" data-source-text="궁극기 사거리 615px · 복귀 기술 없음" data-parent="a-char-yuki" x="3080" y="2679" font-size="28" font-weight="400" fill="#1F2430" text-anchor="start"><tspan x="3080" dy="0">궁극기 사거리 615px · 복귀 기술 없음</tspan></text><path d="M120 2728 H3720" stroke="#D9DEEA" stroke-width="3"/><text class="source-text" data-source-text="K · L = 기술 키, 거리는 게임 화면 px · 자세한 설명: reports/bot-behavior/README.md" data-parent="footer" x="1920" y="2772" font-size="28" font-weight="400" fill="#535B6E" text-anchor="middle"><tspan x="1920" dy="0">K · L = 기술 키, 거리는 게임 화면 px · 자세한 설명: reports/bot-behavior/README.md</tspan></text></svg>